<?xml version="1.0" encoding="UTF-8"?>
<svg width="640px" height="460px" viewBox="0 0 640 460" version="1.1" xmlns="http://www.w3.org/2000/svg" xmlns:xlink="http://www.w3.org/1999/xlink">
    <!-- Generator: Sketch 51.3 (57544) - http://www.bohemiancoding.com/sketch -->
    <title>meet_ferris</title>
    <desc>Created with Sketch.</desc>
    <defs></defs>
    <g id="meet_ferris" stroke="none" stroke-width="1" fill="none" fill-rule="evenodd">
        <path d="M-5.35984867,264.89344 C-5.35728043,262.850441 -4.47793836,258.454187 -2.72179608,251.704817 C-2.01709854,249.042029 -0.849913938,243.309808 0.779792736,234.515447 C1.74013831,229.374481 2.53541695,226.114371 3.16565251,224.732115 C3.36937141,224.306211 3.70713238,223.464423 4.17894555,222.206627 C4.65075873,220.948655 4.99012012,220.132347 5.19703992,219.757772 C5.4723995,219.249642 6.29164351,218.8538 7.65479654,218.569503 C9.01794957,218.284141 10.3946858,218.217951 11.7850465,218.371387 C11.9904923,218.385434 12.3635576,218.422212 12.9042534,218.481678 C13.4449492,218.541075 13.8184146,218.58421 14.0246607,218.611128 C14.2309068,218.638037 14.5470415,218.684499 14.9730743,218.750497 C15.3991071,218.816461 15.7363525,218.894201 15.9848207,218.983747 C16.233289,219.073297 16.5279445,219.18619 16.868796,219.322438 C17.2096475,219.4587 17.5266141,219.62252 17.8197051,219.813925 C18.1127962,220.005372 18.4082835,220.235915 18.7061759,220.505588 C19.54249,221.213876 20.1343281,221.898055 20.481708,222.557993 C20.8290878,223.21828 21.1144254,224.118423 21.3377293,225.258705 C21.9263977,228.609566 21.9470357,231.038236 21.3996439,232.540291 C22.9501762,235.745017 24.1086252,237.975904 24.8750256,239.228124 L28.6918042,245.258077 C30.8279681,241.701252 32.5349991,238.441307 33.8129487,235.481005 C34.1917049,234.558428 34.7439529,233.334139 35.4697094,231.807759 C36.1954659,230.280787 36.5933583,229.461968 36.6633985,229.351718 C36.8416367,228.917045 37.1046521,228.404219 37.4524526,227.813139 C37.8002531,227.221913 38.1030894,226.732697 38.3609705,226.345524 L38.750191,225.804165 C38.8437318,224.395454 39.1968755,223.049354 39.8096327,221.765121 C40.831428,219.632569 41.9338398,218.193959 43.1169011,217.4492 C44.0276772,216.85505 45.0420562,216.596855 46.1600684,216.674915 C47.2780806,216.752636 48.2552291,217.145387 49.0915432,217.853852 C50.4455996,219.083058 51.4470392,220.831688 52.095892,223.100898 C52.7075548,223.48337 53.2643101,224.016552 53.7661745,224.700657 C54.1310327,225.23485 54.3368551,226.527972 54.3836478,228.580977 C54.4079076,229.835131 54.5824807,233.165827 54.9073722,238.581238 C55.0978258,241.761046 55.3991266,245.515605 55.8112837,249.847981 C56.6291961,258.428555 57.0389464,262.743723 57.0405468,262.770685 C57.0740298,262.904133 57.2393465,263.21315 57.5365019,263.69788 C57.8336574,264.182801 58.1742302,264.753611 58.5582307,265.410441 C58.9422311,266.067613 59.2354127,266.594325 59.4377842,266.990423 C59.4951473,267.095891 59.632183,267.359928 59.8488953,267.782634 C60.0656076,268.205473 60.1978736,268.497116 60.2456973,268.657483 C60.2935211,268.817865 60.3592856,269.065558 60.4429929,269.400604 C60.5267003,269.735712 60.5327651,270.054488 60.4611877,270.356899 C60.3896103,270.659315 60.2623037,270.991719 60.0792641,271.354089 C59.9869441,271.521717 59.8047075,271.897563 59.5325489,272.481584 C59.2603902,273.06552 59.0558741,273.49664 58.9189946,273.775001 C58.782115,274.05334 58.5855378,274.402459 58.3292571,274.822327 C58.0729764,275.242115 57.8190686,275.593786 57.5675259,275.877356 C57.3159833,276.160855 57.0556738,276.403942 56.7865895,276.606625 C55.9713343,277.078845 55.3785806,277.316396 55.0083105,277.319676 C54.6380404,277.322903 54.1383423,277.189482 53.509201,276.919484 C52.8545791,276.650678 52.0394516,276.152039 51.063794,275.423924 C50.0881364,274.696347 49.4951296,274.067075 49.2847558,273.535827 C48.59147,271.756994 48.0868329,269.715213 47.7708294,267.410659 C47.6415725,266.527377 47.2423627,264.223539 46.5731879,260.503946 C45.9040132,256.791206 45.4919999,254.284562 45.3371358,252.979364 C45.1375856,251.355946 44.9248032,249.40661 44.6987823,247.132064 C44.4727614,244.859717 44.3030008,242.993413 44.1894953,241.532097 L44.0192379,239.341757 C43.27773,241.465816 42.5903314,243.426286 41.9570215,245.223297 C41.8901822,245.387169 41.7311201,246.036554 41.4798306,247.17155 C41.228541,248.306644 40.8940442,249.439621 40.47633,250.570336 C40.0586158,251.700909 39.5234458,252.790628 38.8708039,253.839247 C37.8266023,255.601459 36.3453134,257.530263 34.4268929,259.623601 C33.7805263,260.347476 33.3431183,260.827857 33.1146557,261.065071 C32.8861931,261.302226 32.4885426,261.593545 31.9216924,261.938862 C31.3548422,262.283894 30.7553183,262.509989 30.1231027,262.617205 C29.5163678,262.723119 28.8868991,262.6632 28.2346779,262.437604 C27.5824567,262.212017 27.1030374,261.992508 26.7964058,261.7791 C26.4897741,261.565739 26.068054,261.244189 25.5312328,260.814549 C25.4770706,260.763639 25.2022939,260.549172 24.7068946,260.171254 C24.2114953,259.793484 23.8626467,259.515947 23.6603385,259.338546 C23.4580302,259.161178 23.1911924,258.867112 22.8598171,258.456432 C22.5284417,258.045909 22.2735122,257.63232 22.095021,257.215629 C21.5101862,255.9949 20.4123637,254.109317 18.8015204,251.562106 C17.1906771,249.020385 16.2538017,247.480869 15.9908661,246.939564 C15.6721678,246.322028 15.2064993,245.494402 14.5938464,244.457109 C13.9811936,243.420708 13.4486234,242.545628 12.9961199,241.8315 L12.3149675,240.721902 C11.5333218,241.72876 10.9666699,242.698913 10.6149948,243.632854 C10.6165952,243.659015 10.3842615,244.246507 9.91798665,245.395192 C9.45171178,246.543674 9.04274294,247.584541 8.69106786,248.517905 C8.33939278,249.451167 7.95236655,250.641739 7.52997754,252.089723 C7.10758854,253.537701 6.81774547,254.855869 6.66043965,256.044475 C6.20747452,259.08503 6.02020581,261.249421 6.0986279,262.537023 C6.1178333,262.852454 6.30718805,263.656334 6.66669783,264.949405 C7.0262076,266.24347 7.20922391,267.154683 7.21575225,267.682396 C7.23028284,268.341978 6.79537033,269.167133 5.91100168,270.157101 C5.02663303,271.146175 4.2858937,271.767457 3.68876148,272.021428 C3.19195152,272.246028 2.39372336,272.340008 1.29405306,272.303191 C0.194382763,272.265938 -0.834831752,272.127737 -1.79362136,271.88883 C-2.70144961,271.648547 -3.520273,270.775264 -4.25011611,269.270292 C-4.97995921,267.767019 -5.34986636,266.308335 -5.35984867,264.89344 Z M76.0119883,267.049136 C75.4317019,265.005968 74.9824898,263.237128 74.6643387,261.741633 C74.3461876,260.247288 74.0801389,258.553311 73.8661846,256.659932 C73.6522303,254.768076 73.6226113,252.859008 73.7773267,250.932162 C73.932042,249.006167 74.2686864,247.02115 74.7872701,244.976505 C75.3933723,242.681603 76.4438335,240.544639 77.9386852,238.563517 C79.4335368,236.579768 81.1283338,234.944505 83.0231272,233.657205 C84.9179205,232.366647 86.8270892,231.316448 88.7506906,230.50701 C90.674292,229.694894 92.488868,229.202753 94.194473,229.031622 C98.0340532,228.566576 101.10366,228.395173 103.403386,228.521373 C105.703113,228.646117 107.646238,229.35098 109.232822,230.638421 C111.008973,232.103494 112.476197,233.763982 113.634536,235.620324 C114.792876,237.479491 115.422451,239.277198 115.523279,241.012194 C115.619306,242.665584 115.122146,244.467504 114.031785,246.416192 C112.941423,248.363445 111.643171,250.035126 110.13699,251.430604 C108.947653,252.54961 107.988362,253.330852 107.259089,253.775113 C106.529815,254.218918 105.388466,254.617713 103.835008,254.970832 C102.281551,255.322591 100.089076,255.575399 97.2575202,255.727857 C94.6043288,255.86431 92.4062215,255.903944 90.6631324,255.848159 C88.9200434,255.791405 87.8398683,255.694826 87.4225747,255.559147 L86.7966375,255.355634 C86.78236,255.548431 86.7716836,255.802645 86.7646081,256.1183 C86.7575326,256.433984 86.768462,257.056867 86.7973967,257.987169 C86.8263313,258.917766 86.8914854,259.811928 86.992861,260.669696 C87.0942366,261.527776 87.2919935,262.503442 87.5861379,263.596987 C87.8802823,264.691198 88.2432611,265.650968 88.6750852,266.476204 C90.5409884,269.966484 93.0791846,271.613909 96.2897501,271.40842 C98.6945366,271.417872 100.518652,270.895436 101.762151,269.841472 C102.322599,269.35969 102.853558,268.810267 103.355042,268.193206 C103.856527,267.575857 104.400563,266.809582 104.987166,265.894263 C105.573768,264.978531 105.914825,264.461592 106.010346,264.343736 C106.507029,263.641919 107.408684,263.194735 108.715338,263.001757 C110.021991,262.807937 110.951653,262.843028 111.504353,263.107712 C112.104812,263.313238 112.657103,263.571091 113.161242,263.881344 C113.66538,264.191697 114.004658,264.416985 114.179085,264.557157 C114.353511,264.697349 114.724271,265.02493 115.291374,265.540091 C116.044845,266.181075 115.499188,268.259007 113.654388,271.770587 C113.240549,272.581681 112.863304,273.250395 112.522642,273.776799 C112.18198,274.303063 111.649084,275.044842 110.923938,276.001801 C110.198792,276.958146 109.332684,277.797675 108.325586,278.520168 C107.318489,279.241721 106.200283,279.809172 104.970936,280.222488 C101.985148,281.218115 99.2369717,281.783385 96.7263247,281.920776 C94.2156777,282.055538 91.4601098,281.821015 88.4595385,281.21816 C85.8985405,280.699737 83.4252453,279.052482 81.0395788,276.282313 C78.6539122,273.519124 76.9780655,270.441529 76.0119883,267.049136 Z M88.5231406,244.88624 C88.6905552,245.55728 90.3030791,245.778811 93.3607605,245.54769 C97.4121883,245.235369 99.9593545,244.801719 101.002335,244.251276 C101.849473,243.853297 102.555224,243.335471 103.119611,242.697926 C103.683997,242.060026 103.986801,241.436448 104.028034,240.827505 C104.105696,239.527743 103.611778,238.743785 102.546265,238.47525 C102.07801,238.349333 100.941336,238.395489 99.1362089,238.612602 C97.3310819,238.828217 95.9133878,239.100225 94.883084,239.429246 C93.6282555,239.857474 92.0901515,240.908579 90.2687259,242.580797 C89.7114784,243.115423 89.2664999,243.600226 88.9337772,244.035367 C88.6010545,244.47038 88.4641769,244.753966 88.5231406,244.88624 Z M130.127754,244.343438 C130.471174,242.301992 130.957162,240.401243 131.585734,238.640514 C132.214306,236.879447 132.877583,235.386617 133.575585,234.161791 C134.273586,232.936377 135.1388,231.721754 136.171251,230.517434 C137.203702,229.311924 138.12194,228.347065 138.925992,227.62323 C139.730044,226.898746 140.706845,226.057995 141.856423,225.100478 C144.574348,222.885446 147.042356,221.221973 149.260522,220.112536 C151.478689,218.999385 154.094294,218.328668 157.107415,218.100522 C158.153724,218.009544 159.090556,218.022049 159.917941,218.138283 C160.745326,218.254408 161.407077,218.389481 161.903213,218.543595 C162.39935,218.697719 162.897111,218.992578 163.396511,219.428325 C163.895911,219.864274 164.249161,220.21145 164.456271,220.469759 C164.66338,220.728128 164.985211,221.199201 165.421774,221.883234 C165.858336,222.56765 166.187337,223.052759 166.408788,223.338344 C166.936133,224.041489 167.31859,224.903084 167.556172,225.923224 C167.793753,226.943896 167.923408,227.871028 167.945141,228.704415 C167.966873,229.538022 167.97356,230.67121 167.9652,232.104287 C167.956841,233.537945 167.976667,234.678106 168.024681,235.524555 C168.075895,236.427706 167.996907,237.29553 167.787713,238.12785 C167.578519,238.960178 167.172656,239.827751 166.570112,240.730263 C165.967568,241.632343 165.486801,242.308093 165.127798,242.757746 C164.768794,243.207253 164.105696,243.943883 163.138483,244.967018 C162.171271,245.989152 161.579412,246.624411 161.36289,246.873523 C159.939552,248.436316 158.089441,250.039039 155.812501,251.679873 C153.535561,253.316021 151.707603,254.39563 150.328572,254.921288 C149.551474,255.220073 148.507214,255.437118 147.195759,255.572174 C145.884304,255.706487 144.766741,255.758931 143.843034,255.729874 L142.498103,255.724438 C142.536388,255.946553 142.604953,256.250563 142.703801,256.636518 C142.80265,257.022552 143.090293,257.688049 143.56674,258.633448 C144.043187,259.579486 144.619916,260.375954 145.296944,261.022702 C147.003055,262.654323 149.267917,263.53016 152.091598,263.646541 C152.733416,263.673949 153.315893,263.671083 153.839048,263.637951 C154.362202,263.604711 154.896088,263.534842 155.440721,263.428307 C155.985355,263.321619 156.396609,263.234134 156.674496,263.165933 C156.952383,263.097688 157.424937,262.961635 158.092172,262.757596 C158.759408,262.553284 159.218822,262.410819 159.470428,262.33037 C160.702977,261.929929 161.718188,261.762979 162.516091,261.83011 C163.313994,261.897086 164.233012,262.295035 165.273171,263.0245 C165.593343,263.251249 165.84941,263.477005 166.041379,263.701769 C166.233347,263.926578 166.357643,264.200769 166.414269,264.524353 C166.470895,264.847983 166.51238,265.130169 166.538724,265.370901 C166.565068,265.611656 166.520172,265.952165 166.404035,266.392422 C166.287898,266.832679 166.192042,267.177998 166.116463,267.428388 C166.040885,267.678776 165.898469,268.107149 165.689212,268.713496 C165.479955,269.319806 165.332369,269.770067 165.246451,270.064318 C165.201892,270.182954 165.147793,270.359732 165.084155,270.59466 C164.629083,272.068146 164.195371,273.009616 163.783005,273.419056 C163.079276,274.112075 161.535444,274.664162 159.151463,275.073589 C156.210108,275.585199 153.563727,275.760967 151.212239,275.603031 C148.860751,275.443589 146.370199,274.747247 143.740509,273.516092 C140.795447,272.14213 138.402994,270.583648 136.563078,268.841588 C134.723161,267.102471 133.148288,264.852222 131.838412,262.092543 C129.537357,257.234568 128.967144,251.320936 130.127754,244.343438 Z M143.643523,242.823828 C143.772527,242.839456 143.952489,242.850148 144.183416,242.855895 C144.414342,242.861626 144.856278,242.860913 145.509236,242.85366 C146.162194,242.846263 146.69011,242.780589 147.093,242.65667 C148.435473,242.383782 150.212439,241.192935 152.423951,239.081026 C153.444526,238.102445 154.323711,237.003439 155.061534,235.784287 C155.799357,234.564478 156.21516,233.653183 156.308954,233.050901 C156.599938,231.412469 156.325003,230.638509 155.484141,230.728571 C154.923566,230.788447 153.855521,231.387808 152.279973,232.525091 C150.704425,233.660132 149.077603,235.016077 147.399459,236.59249 C146.377284,237.538489 145.556598,238.533611 144.937375,239.578333 C144.318153,240.622592 143.94731,241.417422 143.824834,241.963206 L143.643523,242.823828 Z M179.417401,226.039872 C179.676503,224.272159 181.251163,222.85945 184.14143,221.797393 C185.045931,221.458899 186.105301,221.136544 187.319571,220.830114 C188.533841,220.522888 189.521571,220.293083 190.28279,220.141075 L191.424614,219.912531 C191.810613,216.28964 192.031911,213.161493 192.088515,210.527667 C192.122966,208.411929 192.384022,205.084629 192.871691,200.54743 C193.005116,199.276937 193.264868,198.423466 193.650952,197.986658 C194.037037,197.549689 194.69426,197.13941 195.622641,196.755502 C197.481004,196.014248 199.629351,195.857783 202.067747,196.287363 C203.260664,196.491343 204.098071,196.881112 204.579993,197.457024 C205.061915,198.033248 205.311864,199.164962 205.329849,200.852594 C205.338104,201.911786 205.284259,203.008546 205.168312,204.14283 C205.052365,205.277339 204.894629,206.467973 204.695102,207.714727 C204.495574,208.961656 204.360055,209.862749 204.28854,210.417937 L203.647697,216.839504 C207.530236,216.038998 210.482686,215.356208 212.505136,214.794973 C212.960587,214.67555 213.591593,214.481632 214.398172,214.213005 C215.204751,213.943991 215.898658,213.726174 216.479912,213.559698 C217.061166,213.393034 217.675062,213.23615 218.321619,213.089022 C218.968175,212.941684 219.516402,212.872936 219.966315,212.882892 C220.416228,212.892795 220.762244,212.996787 221.004373,213.194944 C221.353227,213.465263 221.588583,213.657211 221.710448,213.770742 C221.832313,213.884287 222.06887,214.097907 222.420124,214.411677 C222.771378,214.725549 223.011136,214.996962 223.139402,215.225877 C223.267669,215.454831 223.411475,215.732479 223.570824,216.058856 C223.730173,216.385307 223.800339,216.724177 223.781324,217.075441 C223.762308,217.426732 223.673222,217.78771 223.514062,218.158344 C223.014305,219.331246 222.059878,220.522165 220.650755,221.729933 C219.241632,222.935813 217.560154,223.972829 215.60627,224.840464 C213.376901,225.828364 210.279634,226.895878 206.314378,228.038929 C205.836647,228.215018 205.341413,228.422047 204.828662,228.659993 C204.31591,228.897753 203.922598,229.091478 203.648712,229.241269 L203.237886,229.465846 C203.422697,235.536635 203.686767,240.277425 204.030105,243.683082 C204.148285,244.88647 204.268528,246.358413 204.390835,248.099337 C204.513143,249.841304 204.622183,251.113767 204.717957,251.916171 C204.813731,252.718824 204.94606,253.2559 205.114949,253.527267 C205.647095,254.338796 206.494873,254.830994 207.658308,255.003323 C208.821744,255.175435 209.885914,254.943322 210.850853,254.30655 C211.296701,254.021307 211.68675,253.538237 212.02101,252.85735 C212.35527,252.176329 212.773904,251.3977 213.276926,250.521309 C213.779948,249.644613 214.436676,248.880422 215.24713,248.228485 C216.40151,247.300673 217.214352,246.690766 217.685681,246.399535 C218.157011,246.108124 218.696066,245.998059 219.302865,246.069421 C219.909663,246.140716 220.578647,246.525897 221.309838,247.225384 C223.395084,249.222838 223.639507,252.03658 222.043112,255.661578 C221.197955,257.55189 219.548243,259.733674 217.093928,262.202971 C214.639613,264.66607 212.517526,266.170932 210.727603,266.720824 C208.987042,267.234165 207.356703,267.419648 205.836538,267.278217 C204.316373,267.136265 202.626945,266.713249 200.768203,266.009784 C198.936542,265.332828 197.376326,264.235093 196.087508,262.71787 C194.798691,261.202684 193.985153,259.247508 193.646869,256.852524 C192.646424,249.939894 192.058311,245.376855 191.882515,243.149703 L191.124854,233.059381 C190.97357,233.10608 190.757788,233.146077 190.4775,233.179359 C190.197213,233.212606 189.654556,233.255367 188.849514,233.307485 C188.044472,233.359362 187.281232,233.355948 186.559771,233.297335 C185.83831,233.238605 185.046357,233.066352 184.183888,232.780692 C183.32142,232.495075 182.593904,232.100948 182.00132,231.598467 C181.029601,230.740707 180.32547,229.966659 179.888908,229.276017 C179.452346,228.585757 179.253115,228.010588 179.291209,227.550236 C179.329304,227.089927 179.371367,226.586473 179.417401,226.039872 Z M282.683226,255.04486 C282.335467,252.859537 282.275492,248.855025 282.503299,243.035284 C282.546005,241.914794 282.729241,239.223759 283.053013,234.964353 C283.376784,230.70823 283.520936,227.773714 283.485473,226.1588 C283.458139,225.173149 283.42711,223.761112 283.392384,221.923139 C283.357658,220.086103 283.326965,218.443984 283.300304,216.996467 C283.273644,215.549532 283.259387,214.332968 283.257533,213.346493 C283.238075,212.034335 283.308377,209.886544 283.46844,206.904079 C283.628504,203.923452 283.705334,202.374742 283.698932,202.25653 C283.705208,201.897679 283.625839,201.381715 283.460825,200.708765 C283.295811,200.036036 283.079808,199.252928 282.812808,198.35957 C282.545808,197.46664 282.397169,196.978252 282.366887,196.894072 C282.185195,196.38908 282.144416,195.756386 282.244548,194.995913 C282.344681,194.235514 282.587385,193.614525 282.97267,193.132749 C283.141432,192.925604 283.39654,192.532717 283.738002,191.953995 C284.079464,191.375133 284.412982,190.886723 284.738566,190.488767 C285.06415,190.090697 285.414841,189.799732 285.790649,189.615879 C288.074181,188.565294 289.827457,187.931877 291.05053,187.71772 C295.611571,186.913518 298.995649,186.221392 301.202865,185.646111 C302.417936,185.27754 305.250186,184.600038 309.699702,183.60736 C312.242969,183.048809 313.84429,182.918144 314.503713,183.217648 C316.165012,183.964529 317.196353,184.482004 317.597769,184.769645 C318.266795,185.249258 318.727199,185.798086 318.978994,186.416123 C319.23079,187.034395 319.345673,187.859647 319.323646,188.891914 C319.285741,190.10887 319.029254,191.328386 318.554177,192.550064 C318.079099,193.771492 317.368642,194.679719 316.422782,195.274442 C316.072455,195.458688 315.439448,195.648422 314.523744,195.843431 C313.60804,196.038061 312.435947,196.247979 311.007428,196.472856 C309.57891,196.69691 308.77548,196.824443 308.597115,196.856067 C307.705292,197.013983 306.799973,197.279372 305.881131,197.652105 C304.962289,198.024318 304.355595,198.341362 304.06103,198.603573 C303.889067,198.754008 303.148201,199.086437 301.83841,199.600109 C300.528619,200.112741 299.586312,200.523418 299.011459,200.832753 C298.511449,201.098961 297.940206,201.474783 297.297714,201.960098 C296.655222,202.445059 296.13734,202.855934 295.744053,203.192896 L295.156527,203.742663 C295.257355,205.616109 295.346052,206.786981 295.422621,207.254566 C295.563081,208.432462 295.591341,209.915097 295.507403,211.702635 C295.482049,212.187936 295.511657,212.73936 295.596228,213.356998 C295.680799,213.974783 295.771707,214.471293 295.868954,214.846485 L296.014826,215.409401 C296.272833,215.427136 296.975142,215.341501 298.121772,215.152086 C298.656867,215.063503 299.93682,214.722957 301.96167,214.128895 C303.986521,213.532652 305.381135,213.169213 306.145555,213.04002 C308.005645,212.724616 310.530658,212.581922 313.720671,212.611096 C314.440532,212.608594 315.077697,213.106055 315.632187,214.104131 C316.186676,215.102917 316.562027,216.239553 316.758249,217.51402 C317.278351,221.017804 316.948477,223.282319 315.768617,224.303091 C314.81008,225.133413 312.602897,225.683095 309.147001,225.94972 C308.455822,226.002554 307.181038,226.317751 305.322613,226.894024 C303.464187,227.468404 301.937001,227.866427 300.74101,228.089047 C299.646941,228.294716 298.61859,228.527161 297.655926,228.786431 C296.693261,229.045221 295.997755,229.253682 295.569385,229.412098 L294.965053,229.643481 C295.100839,231.222908 295.188735,232.387529 295.228747,233.136879 C295.377589,235.925967 295.393299,238.147609 295.275878,239.800468 C295.206091,240.901353 295.167208,242.944555 295.159228,245.931636 C295.151248,248.92095 295.115565,251.028339 295.05218,252.252421 C294.976244,254.207836 294.77832,255.558751 294.4584,256.304505 C294.138481,257.050139 293.528681,257.655277 292.628982,258.11959 C292.503179,258.16812 292.234067,258.298048 291.821638,258.509295 C291.409209,258.72042 291.128157,258.867036 290.978474,258.949227 C290.828791,259.031402 290.540969,259.171278 290.114999,259.368781 C289.68903,259.56616 289.400408,259.690751 289.249124,259.74264 C289.09784,259.794515 288.814388,259.895508 288.398758,260.045552 C287.983128,260.195492 287.710815,260.264391 287.581812,260.252329 C287.452808,260.240263 287.197205,260.261259 286.814994,260.315273 C286.018691,260.306402 285.178052,259.705438 284.293051,258.513358 C283.408049,257.322428 282.871447,256.166432 282.683226,255.04486 Z M332.222029,217.349508 C332.565448,215.082123 333.051437,212.958278 333.680009,210.97729 C334.308581,208.995964 334.971857,207.306535 335.669859,205.908766 C336.367861,204.510409 337.233074,203.111291 338.265526,201.710921 C339.297977,200.309361 340.216215,199.180736 341.020267,198.325416 C341.824319,197.469446 342.801119,196.472897 343.950698,195.335266 C346.668622,192.699658 349.13663,190.688841 351.354797,189.305281 C353.572963,187.918006 356.188568,186.987004 359.20169,186.512401 C360.247998,186.334778 361.184831,186.278865 362.012216,186.344903 C362.839601,186.410834 363.501352,186.50986 363.997488,186.642074 C364.493624,186.774297 364.991385,187.06077 365.490785,187.501644 C365.990186,187.942721 366.343436,188.297268 366.550545,188.565191 C366.757655,188.833176 367.079486,189.325909 367.516048,190.043646 C367.95261,190.761767 368.281612,191.269289 368.503062,191.565994 C369.030407,192.297821 369.412865,193.214124 369.650446,194.315003 C369.888028,195.416414 370.017683,196.423263 370.039415,197.335346 C370.061148,198.247649 370.067834,199.48949 370.059475,201.061176 C370.051115,202.633444 370.070942,203.881817 370.118955,204.806083 C370.17017,205.792239 370.091181,206.74941 369.881987,207.677422 C369.672793,208.605442 369.26693,209.586869 368.664386,210.621403 C368.061842,211.655505 367.581076,212.432394 367.222072,212.952308 C366.863068,213.472074 366.19997,214.329514 365.232758,215.524012 C364.265545,216.71751 363.673687,217.458619 363.457164,217.748071 C362.033827,219.568975 360.183716,221.466262 357.906775,223.438122 C355.629835,225.405295 353.801877,226.728425 352.422846,227.410107 C351.645749,227.797117 350.601488,228.114966 349.290033,228.363412 C347.978579,228.611113 346.861015,228.75424 345.937309,228.793163 L344.592378,228.890323 C344.630662,229.131013 344.699227,229.459202 344.798076,229.874942 C344.896924,230.290761 345.184567,230.998586 345.661014,231.998859 C346.137461,232.99977 346.71419,233.828892 347.391219,234.486075 C349.09733,236.143988 351.362192,236.930125 354.185872,236.840807 C354.82769,236.821583 355.410168,236.773741 355.933322,236.697287 C356.456476,236.620724 356.990362,236.503202 357.534996,236.344685 C358.079629,236.186013 358.490883,236.058621 358.76877,235.962587 C359.046657,235.866509 359.519211,235.681216 360.186447,235.406529 C360.853683,235.131569 361.313097,234.940304 361.564702,234.832902 C362.797251,234.299872 363.812462,234.039376 364.610365,234.052004 C365.408269,234.064477 366.327286,234.430344 367.367446,235.150147 C367.687618,235.374123 367.943684,235.601898 368.135653,235.833474 C368.327622,236.065096 368.451917,236.355976 368.508543,236.706124 C368.56517,237.05632 368.606654,237.362268 368.632998,237.62396 C368.659342,237.885674 368.614447,238.262102 368.49831,238.753239 C368.382173,239.244375 368.286316,239.629966 368.210738,239.910023 C368.135159,240.190076 367.992744,240.670208 367.783486,241.350407 C367.574229,242.03057 367.426644,242.535079 367.340725,242.863975 C367.296166,242.997339 367.242068,243.195122 367.178429,243.457331 C366.723358,245.106219 366.289645,246.170749 365.87728,246.650911 C365.17355,247.464116 363.629718,248.18767 361.245737,248.819849 C358.304383,249.607283 355.658001,250.004324 353.306514,250.013118 C350.955026,250.020406 348.464474,249.45011 345.834783,248.30432 C342.889721,247.026278 340.497268,245.502863 338.657352,243.735016 C336.817436,241.970113 335.242563,239.623655 333.932686,236.697342 C331.631632,231.544412 331.061418,225.097876 332.222029,217.349508 Z M345.737797,214.650815 C345.866801,214.658154 346.046764,214.656205 346.27769,214.644957 C346.508617,214.633693 346.950552,214.599326 347.603511,214.541758 C348.256469,214.484047 348.784385,214.371914 349.187274,214.205389 C350.529748,213.804174 352.306714,212.36324 354.518225,209.879473 C355.5388,208.729067 356.417986,207.457344 357.155809,206.064577 C357.893632,204.671155 358.309434,203.640377 358.403228,202.97274 C358.694213,201.153807 358.419278,200.325511 357.578415,200.487399 C357.01784,200.595158 355.949795,201.332853 354.374247,202.698925 C352.798699,204.062755 351.171878,205.673028 349.493733,207.529317 C348.471558,208.644548 347.650872,209.798516 347.03165,210.991703 C346.412428,212.184428 346.041584,213.08466 345.919109,213.692787 L345.737797,214.650815 Z M386.484558,209.092556 C385.844928,205.171619 385.578331,199.505772 385.684757,192.099593 C385.700382,190.908529 386.367018,189.856776 387.684685,188.943038 C389.002352,188.027933 390.468606,187.495107 392.083491,187.344945 C393.569373,187.189721 394.905246,187.496662 396.091151,188.26684 C397.277056,189.037712 398.029346,189.766991 398.348044,190.454403 C398.465971,190.744039 398.565618,191.179084 398.646988,191.759607 C398.728358,192.340254 398.762336,192.875876 398.748922,193.366434 C398.735508,193.857043 398.753544,194.333257 398.803031,194.795108 C399.1088,194.731287 399.820584,194.299131 400.938407,193.497908 C401.906546,192.790239 403.21219,191.632227 404.855377,190.022494 C406.498564,188.410216 407.776264,186.952924 408.688514,185.651787 C410.559174,182.941966 411.67839,181.403314 412.046196,181.038638 C412.511124,180.557792 413.099508,180.223357 413.811367,180.035304 C414.879955,179.768417 415.818819,179.861741 416.627989,180.315854 C417.437159,180.77022 418.283832,181.580817 419.168033,182.748324 C421.404816,185.682115 421.758299,188.574806 420.22849,191.419038 C419.617207,192.568518 418.83034,193.683931 417.867865,194.764948 C416.905391,195.845034 415.533709,197.233731 413.752779,198.929575 C411.971848,200.622481 410.458856,202.137438 409.213757,203.475547 C407.651813,205.16303 406.253545,206.901486 405.018912,208.691493 C403.784279,210.479784 402.947315,211.861189 402.507995,212.836864 L401.846617,214.252912 C402.478371,218.562847 403.168888,222.264599 403.91819,225.356383 C404.53516,227.873955 404.9099,229.805056 405.042421,231.148059 C405.174942,232.491639 405.066967,233.786882 404.718493,235.033336 C404.061177,236.785367 402.429153,238.341129 399.822375,239.697581 C398.669469,240.297898 397.357571,240.299326 395.88664,239.702807 C394.41571,239.106642 393.457882,237.978191 393.013128,236.318117 C391.023737,229.098443 389.563135,223.559743 388.631278,219.688423 C387.69942,215.823806 386.983854,212.292594 386.484558,209.092556 Z M435.727028,225.103248 C435.626914,219.515172 435.822014,209.819431 436.312333,196.037413 C436.581373,189.122707 436.88744,183.839202 437.230543,180.181322 C437.573647,176.525266 438.115334,174.117936 438.855621,172.957417 C439.094423,172.582922 439.304172,172.270969 439.484874,172.02157 C439.665577,171.772136 439.866987,171.549794 440.089111,171.354533 L440.607398,170.898758 C440.7308,170.790205 440.931441,170.679631 441.209328,170.567011 C441.487215,170.454348 441.695827,170.37377 441.835171,170.325301 C441.974514,170.276822 442.247627,170.197114 442.654518,170.086125 C443.061408,169.975061 443.378712,169.876886 443.606437,169.791632 C444.926631,169.386332 445.952245,169.273508 446.683309,169.453804 C447.414373,169.634119 448.401155,170.283041 449.643686,171.40153 C450.131147,171.864365 450.510309,172.352876 450.781183,172.867049 C451.052058,173.381399 451.235316,173.820122 451.330963,174.183147 C451.426611,174.546232 451.427538,175.07617 451.333744,175.772964 C451.23995,176.469803 451.160835,176.946288 451.096396,177.202399 C451.031957,177.458509 450.879602,178.016365 450.639326,178.875955 C450.42293,179.697811 450.226079,180.651756 450.048768,181.737897 C449.871456,182.824113 449.748646,183.712874 449.680333,184.404194 L449.616084,185.432519 C450.364373,184.423882 451.368255,183.371764 452.627758,182.275555 C454.92384,180.259928 457.067133,178.791504 459.0577,177.871898 C460.619897,177.148109 462.681148,175.577434 465.241513,173.156489 C466.17777,172.285185 466.896293,171.70004 467.397104,171.401496 C467.897915,171.102778 468.600624,170.973557 469.505251,171.013858 C471.094782,171.341737 472.500579,172.63849 473.722684,174.906736 C474.831663,176.978149 474.767731,179.318014 473.530887,181.922882 C473.366927,182.254656 473.088707,182.62174 472.696221,183.024062 C472.303734,183.426238 471.773112,183.901673 471.104339,184.45021 C470.435567,184.998374 469.759633,185.531606 469.07652,186.049921 C468.393406,186.567865 467.511261,187.229504 466.43006,188.034446 C465.348858,188.838464 464.374363,189.584316 463.506546,190.272252 C461.944475,191.508979 460.624091,192.68003 459.545353,193.786115 C458.466615,194.891099 457.284835,196.253114 455.999978,197.871728 C454.71512,199.488611 453.829101,200.577559 453.341894,201.139724 C452.39136,202.225662 451.487799,203.219387 450.631185,204.12108 C449.774571,205.022065 449.162371,205.658334 448.794565,206.030339 L448.240457,206.540166 C448.060031,211.170097 448.321574,215.886469 449.025095,220.692541 C449.109666,221.355402 449.189034,221.914096 449.263202,222.368586 C449.33737,222.823151 449.372916,223.277918 449.369842,223.732878 C449.366767,224.187881 449.383972,224.533117 449.421456,224.768578 C449.45894,225.004058 449.415613,225.297322 449.291474,225.648349 C449.167335,225.99936 449.101297,226.224396 449.093358,226.323478 C449.085419,226.422561 448.95568,226.661097 448.704137,227.039037 C448.452594,227.416905 448.290205,227.646012 448.216964,227.726412 C448.143723,227.806807 447.906493,228.084112 447.505267,228.558216 C447.104041,229.032156 446.830992,229.365416 446.68611,229.558114 C445.30093,231.211004 444.219808,232.247312 443.44271,232.668242 C442.665613,233.088765 441.414678,233.29896 439.689867,233.298604 C439.020968,233.306879 438.442428,233.191309 437.954231,232.95202 C437.466034,232.712796 437.088104,232.362073 436.82043,231.899903 C436.552756,231.437878 436.337616,230.868267 436.175003,230.191094 C436.01239,229.514119 435.903508,228.753608 435.848356,227.909539 C435.793204,227.065671 435.752761,226.130236 435.727028,225.103248 Z M487.85866,195.469283 C487.619099,192.703747 487.472944,190.918212 487.420193,190.11107 C487.367441,189.304108 487.354753,187.873219 487.382128,185.81887 C487.409504,183.765382 487.421527,182.444773 487.4182,181.856415 C487.424475,181.462152 487.416715,180.654141 487.394919,179.432595 C487.373123,178.211398 487.360562,177.307075 487.357234,176.719398 C487.353907,176.131797 487.356118,175.395849 487.363867,174.511598 C487.371616,173.62751 487.400908,172.917935 487.451742,172.382757 C487.502577,171.847614 487.572553,171.438405 487.661672,171.155083 C488.325264,168.933163 490.032991,167.478606 492.784905,166.789264 C495.740663,166.045294 497.937023,166.637287 499.37405,168.57027 C499.568419,168.84941 499.725365,169.154461 499.844893,169.485431 C499.964421,169.816458 500.050496,170.12313 500.103121,170.405434 C500.155746,170.687769 500.175351,171.085194 500.161937,171.597736 C500.148523,172.110328 500.129908,172.517482 500.106091,172.819183 C500.082274,173.120896 500.036609,173.633485 499.969096,174.357004 C499.901583,175.08059 499.851149,175.627374 499.817793,175.997336 C499.516112,179.821623 499.605631,184.522997 500.086355,190.106888 C500.131041,190.491783 500.186929,191.104908 500.254021,191.946395 C500.321114,192.788084 500.368232,193.354236 500.395376,193.644734 C500.42252,193.935257 500.464837,194.40371 500.522326,195.050181 C500.579816,195.696775 500.627302,196.13945 500.664786,196.378141 C500.70227,196.616853 500.745756,196.978026 500.795243,197.461709 C500.84473,197.945464 500.894586,198.305254 500.94481,198.541054 C500.995034,198.776877 501.048059,199.069895 501.103885,199.420134 C501.159711,199.770416 501.220306,200.086524 501.285671,200.368458 C501.351036,200.650425 501.429141,200.929366 501.519987,201.205291 C501.701679,201.757254 502.24819,202.784689 503.159535,204.288682 C504.070881,205.794232 504.78314,207.315594 505.296334,208.852516 C505.731359,209.844639 505.872617,211.156122 505.720113,212.786829 C505.567608,214.417864 505.054318,215.784962 504.180225,216.887324 C502.939927,218.406587 501.556979,219.376202 500.031339,219.796577 C498.276374,220.268854 496.369836,219.482359 494.31167,217.440951 C492.903452,216.046375 491.699307,213.822163 490.6992,210.770347 C489.699092,207.723096 488.752255,202.619753 487.85866,195.469283 Z M487.419262,146.838929 C486.722901,145.297629 486.388877,143.777657 486.417179,142.278225 C486.445481,140.779248 486.74379,139.518347 487.312114,138.494855 C487.761037,137.664319 488.489099,136.995464 489.496323,136.487986 C490.503547,135.979888 491.80818,135.482019 493.410262,134.993952 C493.994717,134.806823 494.593936,134.786263 495.207936,134.932407 C495.821936,135.078569 496.268305,135.228548 496.547055,135.382357 C496.825805,135.536196 497.288147,135.877349 497.934093,136.406031 C498.580039,136.93502 498.929287,137.208948 498.981849,137.227594 C499.655676,137.798573 500.009084,138.805455 500.042083,140.248383 C500.075082,141.691809 499.820227,143.186969 499.27751,144.733287 C498.418075,147.178272 496.230224,148.857482 492.71389,149.767662 C491.643701,150.043636 490.642305,149.886392 489.709669,149.296607 C488.777034,148.707248 488.013572,147.887947 487.419262,146.838929 Z M519.659983,202.738953 C519.424002,201.595809 519.544812,200.632265 520.022417,199.847715 C520.500021,199.062904 521.421923,198.13459 522.788151,197.061825 C524.031776,196.118281 525.104654,195.508433 526.006818,195.232883 C526.908981,194.956952 527.723982,194.878039 528.451845,194.996404 C529.358073,195.069937 530.118207,195.322358 530.732271,195.753908 C531.346334,196.185661 531.96439,196.700382 532.586455,197.298186 C533.208521,197.896322 533.874736,198.341084 534.585121,198.632311 C535.536035,199.098192 536.598205,198.662732 537.771664,197.324716 C539.212606,195.648482 540.343636,193.427364 541.164787,190.662356 C541.83158,188.440629 541.132766,186.52144 539.068325,184.907089 C538.42478,184.402751 536.698942,183.391013 533.89076,181.873743 C531.082578,180.359267 528.94339,179.075395 527.473134,178.020912 C525.711386,176.809735 524.411048,175.273621 523.57208,173.412809 C522.733113,171.554023 522.279036,169.1248 522.209837,166.125114 C522.144092,164.253111 522.308502,162.470701 522.703073,160.777157 C523.097644,159.08357 523.692114,157.519164 524.4865,156.083367 C525.280886,154.646826 526.016392,153.457123 526.693041,152.51441 C527.369689,151.571205 528.220689,150.497808 529.246065,149.293774 C530.370163,147.99569 531.778159,146.826537 533.470097,145.785751 C535.162035,144.743027 536.954363,144.036249 538.847135,143.665892 C540.739908,143.294255 542.348894,143.457668 543.674142,144.157574 C547.597325,146.242285 548.553596,149.186336 546.542982,152.981972 C545.786817,154.42559 544.894059,155.713462 543.864682,156.845382 C542.835305,157.976295 541.99892,158.561437 541.355501,158.601503 C540.841086,158.640074 540.368837,158.483648 539.93874,158.13237 C539.508643,157.781222 539.175735,157.570763 538.940007,157.500893 C538.443071,157.368035 537.819635,157.685873 537.069682,158.454016 C536.319729,159.221644 535.604102,160.29605 534.922778,161.677232 C534.593257,162.331336 534.417422,162.961106 534.395268,163.566709 C534.373115,164.172376 534.512215,164.777009 534.812571,165.380748 C535.112927,165.984713 535.380597,166.447448 535.615588,166.768859 C535.850579,167.09035 536.22774,167.549515 536.747083,168.146536 C537.183582,168.632173 537.875309,169.192522 538.822285,169.827791 C539.769261,170.463521 541.106061,171.289452 542.832725,172.306194 C544.559389,173.324178 545.888618,174.129748 546.820453,174.722302 C549.1365,176.192244 550.675269,177.46673 551.436804,178.544573 C552.19834,179.623288 552.733101,181.487862 553.041102,184.139314 C553.521446,188.233979 552.074145,193.290777 548.699158,199.296011 C547.226586,201.934994 545.893683,204.122335 544.700408,205.858841 C543.507134,207.593794 542.287902,208.920152 541.042676,209.83823 C539.948734,210.683824 538.758825,211.408934 537.472915,212.013555 C536.187004,212.617199 534.684467,213.003742 532.965258,213.173264 C531.246049,213.341898 529.686423,213.07602 528.286333,212.376713 C526.172658,211.315353 524.275501,209.80077 522.594808,207.834338 C520.914114,205.871107 519.935849,204.173269 519.659983,202.738953 Z" id="Meet-Ferris!" fill="#F92672" transform="translate(273.885512, 208.396986) rotate(-20.000000) translate(-273.885512, -208.396986) "></path>
        <path d="M622.002125,140.44322 C621.927872,136.171165 623.799367,133.47925 627.616668,132.359592 C628.583333,132.066833 629.423014,131.952761 630.135736,132.017645 C630.848458,132.082472 631.487961,132.371898 632.054264,132.886162 C632.620567,133.400677 633.041919,133.85175 633.318332,134.23929 C633.594745,134.62694 633.999018,135.262723 634.531165,136.146966 C635.960316,138.539067 636.229165,140.67862 635.337721,142.562131 C635.21992,142.799195 634.76854,143.347665 633.983567,144.207137 C633.198594,145.066028 632.551373,145.836616 632.041886,146.519156 C631.233033,147.417114 630.229394,147.87735 629.030938,147.900109 C627.832483,147.922552 626.886016,147.682286 626.191509,147.179739 C626.111867,147.132159 625.83272,146.957212 625.354063,146.654968 C624.875405,146.352825 624.494306,146.068022 624.210754,145.800525 C623.927202,145.533093 623.593463,145.159369 623.209526,144.679427 C622.825589,144.199666 622.532807,143.602495 622.331173,142.887926 C622.129538,142.17358 622.019857,141.358696 622.002125,140.44322 Z" id="Path" fill="#F92672"></path>
        <path d="M597.648196,124.766225 C597.184363,123.108463 597.18274,119.443237 597.643328,113.77245 C597.825988,111.582729 598.070154,103.200037 598.375833,88.6519736 C598.460992,84.9310926 598.748329,80.8380359 599.237851,76.3722659 C599.727373,71.9083938 600.240958,68.2385025 600.778621,65.3611812 C600.904297,64.731459 601.052283,64.164312 601.222582,63.6596956 C601.392881,63.1550452 601.560809,62.737967 601.72637,62.408449 C601.891931,62.0788972 602.103681,61.7696582 602.361625,61.4807002 C602.61957,61.1916783 602.82298,60.9804514 602.971863,60.8470472 C603.120746,60.7136243 603.353638,60.5799819 603.670546,60.4460904 C603.987454,60.3121463 604.196866,60.2291987 604.298789,60.1972811 C604.400712,60.1653591 604.618094,60.1146478 604.950944,60.0451201 L605.450215,59.9407559 C606.421682,59.7054643 607.590269,59.67768 608.956013,59.8576153 C610.321756,60.0374766 611.179906,60.5604758 611.530486,61.4269918 C611.897072,62.637988 612.016609,64.7916496 611.889101,67.8886751 C611.761593,70.9872254 611.476036,74.1624654 611.032421,77.4138832 C610.240584,83.1891389 609.718766,89.217697 609.466952,95.5027672 C609.050462,106.061199 609.004894,112.355209 609.330247,114.372729 C609.440299,115.080304 609.59814,115.844529 609.803776,116.665511 C610.009411,117.486769 610.164852,118.199507 610.270102,118.803634 C610.375352,119.407888 610.4153,119.995993 610.389946,120.567909 C610.366192,121.174699 610.247656,121.685549 610.034334,122.10039 C609.821013,122.515176 609.425763,123.04436 608.848573,123.687759 C608.271383,124.330839 607.873733,124.807176 607.65561,125.116987 C606.006147,127.42517 604.344516,128.623574 602.670667,128.713932 C601.950806,128.778307 600.980797,128.315525 599.760609,127.326425 C598.540421,126.33832 597.83629,125.485123 597.648196,124.766225 Z" id="Path" fill="#F92672" transform="translate(604.618780, 94.230263) rotate(-30.000000) translate(-604.618780, -94.230263) "></path>
        <g id="Group" transform="translate(209.000000, 119.000000) rotate(-12.000000) translate(-209.000000, -119.000000) translate(44.000000, 80.000000)" stroke="#F92672" stroke-linecap="round" stroke-linejoin="round" stroke-width="13">
            <path d="M329.709723,42.6125504 C202.754621,-15.9531837 129.32327,42.6125504 37.0609564,37.9672861" id="Path-2"></path>
            <path d="M57.2023755,0.412141559 L7.25306606,27.7717658 C0.956118028,31.2209052 -1.35248699,39.1216701 2.09665243,45.4186182 C2.99471244,47.0581684 4.2358125,48.4847484 5.73530619,49.6010617 L42.9780107,77.3267702" id="Path-3"></path>
        </g>
        <g id="Group-2" transform="translate(337.468911, 286.017949) rotate(-28.000000) translate(-337.468911, -286.017949) translate(31.468911, 250.017949)">
            <path d="M1.29739697,25.7062243 C1.78362818,24.1302435 3.23153312,23.0027268 5.64054243,22.3239157 C6.39522109,22.1072093 7.26702009,21.9209125 8.25596201,21.7650088 C9.24488617,21.6092173 10.0459633,21.5011639 10.6592271,21.44078 L11.5791097,21.3502516 C12.4624506,18.1395641 13.1412938,15.3566472 13.6147279,12.9999843 C13.9879302,11.1056086 14.7368114,8.14922768 15.8639619,4.13406777 C16.1780811,3.00978587 16.5202097,2.27438305 16.8901055,1.92760649 C17.2600153,1.5809423 17.833996,1.29025377 18.6120405,1.05555614 C20.1645911,0.612062406 21.8422956,0.727688948 23.6455674,1.40135301 C24.5289049,1.72527702 25.1083013,2.17189501 25.3838074,2.74131713 C25.6594533,3.31065379 25.6655583,4.34566188 25.402515,5.84685885 C25.2354983,6.78859697 25.0148476,7.75648223 24.7405639,8.7506198 C24.4665509,9.7450823 24.1515312,10.7848141 23.7955249,11.8699294 C23.4398293,12.9554805 23.1896836,13.7410849 23.0448944,14.2265003 L21.519278,19.8636877 C24.6456675,19.5641313 27.0340094,19.2756834 28.6844254,18.9981121 C29.0549334,18.94207 29.5727359,18.8395147 30.2378425,18.6904885 C30.9029388,18.5415382 31.4729112,18.4257163 31.947781,18.3429845 C32.4226462,18.2602819 32.9211125,18.1899698 33.4431954,18.1320398 C33.9652744,18.0741312 34.399046,18.0745064 34.7445304,18.1331369 C35.09002,18.1917505 35.3405168,18.321363 35.4960385,18.5219756 C35.7225464,18.7976071 35.8738809,18.9918909 35.9500236,19.10486 C36.0261719,19.2178236 36.1750753,19.4311089 36.3967673,19.744693 C36.6185039,20.0582322 36.7609211,20.3222096 36.8240028,20.5366622 C36.8871016,20.7511092 36.9545902,21.0098243 37.0264827,21.3128142 C37.0984084,21.6157969 37.0995933,21.91985 37.0300315,22.2250083 C36.9604955,22.5301937 36.8353743,22.8362722 36.6546599,23.1432732 C36.0858993,24.1157456 35.1632041,25.0565497 33.8864391,25.9660538 C32.6097323,26.8765532 31.1484098,27.6133676 29.5023407,28.176323 C27.6239413,28.8205496 25.060797,29.4527172 21.8127352,30.0732439 C21.4153087,30.1826596 20.9994677,30.3179752 20.5651997,30.4792115 C20.1309283,30.6405037 19.7960192,30.7744502 19.5604643,30.8810283 L19.2071326,31.040933 C18.4065572,36.4500855 17.8815811,40.6825589 17.627821,43.7346209 C17.5365542,44.8122869 17.4066145,46.1280415 17.2382766,47.6821339 C17.0706639,49.2367215 16.9641077,50.3736379 16.9181797,51.0926114 C16.8724101,51.8116728 16.8950074,52.2981868 16.9858715,52.5520938 C17.2788763,53.3131855 17.8654471,53.8159895 18.74548,54.0604676 C19.6255666,54.3047609 20.4883789,54.1844314 21.3339139,53.699872 C21.7232254,53.4842462 22.098473,53.0899666 22.4597204,52.5171213 C22.8210398,51.9444792 23.2625716,51.2931731 23.7843575,50.5633047 C24.306253,49.8338007 24.9308855,49.21695 25.6582106,48.7126976 C26.6939532,47.9966153 27.4166882,47.5315242 27.8264013,47.3169877 C28.2361157,47.1025242 28.6713001,47.0532494 29.1319767,47.1690726 C29.5926667,47.2848498 30.0548646,47.680914 30.5187186,48.3571567 C31.8426126,50.2845638 31.6174089,52.7625909 29.8434741,55.796598 C28.9091964,57.3808627 27.3063647,59.1592491 25.0349454,61.1336923 C22.7641207,63.1121294 20.8910579,64.2804095 19.4152277,64.6358552 C17.9829162,64.9646019 16.6840068,65.0132374 15.5185219,64.781318 C14.3530964,64.549148 13.0966875,64.0560534 11.7494571,63.3016019 C10.4198283,62.5715422 9.36445769,61.4846029 8.58369495,60.0408213 C7.80375438,58.5963647 7.46125249,56.7908692 7.55665558,54.6253379 C7.82351399,48.3653709 8.06427293,44.2327307 8.27065461,42.2233237 L9.25475176,33.1134218 C9.13007103,33.1415151 8.95641654,33.1577398 8.73378331,33.1620945 C8.51115009,33.1664492 8.08350469,33.1555638 7.45083757,33.1294237 C6.8181748,33.1032643 6.22663448,33.0313351 5.67620808,32.9136077 C5.12579833,32.795826 4.53866884,32.5694737 3.91484503,32.2344665 C3.29109544,31.8993019 2.78936294,31.4781093 2.40966565,30.9709022 C1.79278078,30.1078504 1.37045452,29.3438784 1.14254881,28.6791643 C0.914816189,28.0143844 0.852773507,27.4753059 0.956325683,27.0620027 C1.05992689,26.6487538 1.17361118,26.1968266 1.29739697,25.7062243 Z M44.3136992,50.0914804 C44.6365756,47.9033291 45.0346144,44.897642 45.5099534,41.0758 C45.989477,37.2570171 46.3376511,34.6512613 46.5517611,33.2564977 C46.7727659,31.8115186 47.0614315,30.3152582 47.4178083,28.7678346 C47.7748312,27.2211091 48.2528104,25.3639099 48.8521984,23.1968105 C49.4528135,21.0312457 49.8546009,19.5568922 50.0567765,18.7726996 C50.8633263,15.5119653 51.3527066,12.9252083 51.523626,11.0104289 C51.5360957,10.4566737 51.5890583,9.90253637 51.6825092,9.34802672 C51.776047,8.79359029 51.9808267,8.31358849 52.2968091,7.90804022 C52.9053135,7.12266097 53.8791359,6.47258058 55.2181911,5.95786916 C55.4940721,5.85492097 55.7447332,5.78988715 55.970183,5.76275194 C56.1956318,5.73562127 56.4253143,5.75238628 56.659241,5.81303566 C56.893172,5.87367384 57.0724141,5.92852121 57.1969712,5.97758428 C57.3215303,6.02664267 57.5193368,6.13148575 57.7904081,6.29209599 C58.0614965,6.45267398 58.2441897,6.55759768 58.3384815,6.60689179 C59.0558217,6.97639076 59.6570385,7.80442391 60.1425606,9.09092076 C60.6287264,10.3770899 60.7124065,12.2379669 60.394392,14.6747721 C60.126876,16.7357062 58.9396403,21.0960391 56.8400691,27.7670774 C56.4979708,28.8803325 56.2161052,29.9991802 55.9944869,31.1235777 C55.7732122,32.2483076 55.6366662,33.1009243 55.5846602,33.6812484 L55.5068348,34.551842 C57.142711,33.4107383 58.7368504,32.4041166 60.2892409,31.5315979 C61.8416334,30.6602152 63.282133,29.9175559 64.6107641,29.303251 C65.93937,28.689618 66.7882489,28.2794846 67.1574454,28.0723832 C70.2184744,26.3659815 72.3355685,25.5044888 73.5088214,25.484595 C76.0576123,25.4413774 77.7718077,25.7739558 78.6516581,26.4819895 C79.0932511,26.8233376 79.5543924,27.6129185 80.0354703,28.850586 C80.5171082,30.0879122 80.7372684,31.1180916 80.6956837,31.9414818 C80.5861749,34.4617899 79.9423044,39.3898432 78.7734114,46.7343677 C78.2696135,49.9466898 77.6950651,53.013311 77.0493287,55.9343648 C76.4057727,58.8578184 75.8412706,60.941847 75.3544356,62.1852011 C74.8997933,63.3278896 74.2018375,64.1719486 73.260334,64.7173106 C72.3188495,65.2631087 71.3482219,65.5780154 70.3484036,65.6617451 C69.4703025,65.7414362 68.6347202,65.448897 67.841786,64.7837796 C67.0490542,64.1182483 66.5036199,63.1486773 66.2057071,61.8752324 C66.0235376,61.3527158 66.002417,60.6615866 66.1424238,59.8019946 C66.2826287,58.942578 66.4524886,58.2207473 66.6519225,57.6364475 C66.8514393,57.0522783 67.1012691,56.3411008 67.4014839,55.5030043 C67.7018672,54.6651859 67.91218,53.9934907 68.0323518,53.4877472 C68.969833,49.4954206 69.6071837,46.4433428 69.9422519,44.3286816 C70.125433,43.146044 70.2702266,42.0335734 70.3765809,40.991148 C70.4832385,39.948922 70.5593611,39.0766828 70.6048292,38.3743109 L70.6732955,37.3208998 C65.1165664,40.1530434 61.2384706,42.4801069 59.039234,44.2949457 C58.0532475,45.1000842 57.1456077,45.8850374 56.316292,46.64973 C55.4870547,47.4149893 54.9109026,47.9660304 54.587772,48.3025183 L54.0681697,48.8462203 C53.206241,54.4014349 52.6795398,57.8546932 52.4820291,59.2010081 C52.3701802,59.9885602 52.2635751,60.7760811 52.1622112,61.5635896 C52.0610203,62.3512305 51.9797765,62.9675228 51.9183888,63.4124188 C51.8570561,63.8573586 51.8030406,64.2831128 51.7563343,64.6896863 C51.7096744,65.0962933 51.6638395,65.4079558 51.6188028,65.6246681 C51.5737786,65.8413935 51.5135707,66.0143225 51.4381705,66.143458 C50.3307891,68.0555237 49.0298303,69.6341372 47.5348194,70.8789929 C47.1089697,71.2494309 46.4605287,71.4882888 45.5894573,71.5955103 C44.7183805,71.7027883 44.1479259,71.6087628 43.8781079,71.3133443 C43.1036765,70.4763622 42.6890737,68.5204701 42.6362004,65.4466517 C42.6224492,64.8626074 42.6247487,64.2717316 42.6431007,63.6740195 C42.6615586,63.076356 42.7129421,62.3697424 42.7973163,61.5542184 C42.8818811,60.7388246 42.9407912,60.102123 42.9739514,59.6440234 C43.0071726,59.1859595 43.1037748,58.4023318 43.2639746,57.2933008 C43.4245204,56.1845506 43.5244227,55.4647929 43.5634485,55.1338123 C43.6025056,54.8028542 43.7301398,53.9366747 43.9467446,52.5355778 C44.1638997,51.1349438 44.2863505,50.3203658 44.3136992,50.0914804 Z M90.751032,52.5815778 C90.6096109,50.6949919 90.5301083,49.0618333 90.5121444,47.6820887 C90.4947248,46.3025008 90.5501547,44.7410472 90.6786499,42.9979137 C90.807976,41.255248 91.0857131,39.5034956 91.5118195,37.7429302 C91.938689,35.983267 92.5184274,34.1779641 93.2510452,32.3273571 C94.0930748,30.2529939 95.2583582,28.3480044 96.7465388,26.6127376 C98.235124,24.8798223 99.823613,23.4813001 101.511755,22.4165182 C103.199895,21.3532664 104.8599,20.5138873 106.491769,19.897826 C108.123561,19.2825853 109.618263,18.9531065 110.975972,18.9087852 C114.044408,18.7414224 116.464652,18.7922762 118.236918,19.0607989 C120.009303,19.3288996 121.411691,20.0918577 122.444551,21.3492969 C123.598224,22.7751567 124.4816,24.3511373 125.094812,26.0777124 C125.709037,27.8036406 125.921467,29.4386931 125.731798,30.9837309 C125.551718,32.4555974 124.885985,34.0236532 123.734493,35.6890007 C122.583431,37.3561504 121.312055,38.7702827 119.920079,39.9311547 C118.818136,40.8655184 117.947746,41.5126492 117.308827,41.8720295 C116.669907,42.2316048 115.714993,42.5314326 114.444038,42.7715462 C113.173055,43.0118875 111.41619,43.1350411 109.173425,43.1407704 C107.072484,43.1429314 105.342914,43.0803304 103.984681,42.9528952 C102.626486,42.8252792 101.794293,42.6909083 101.488054,42.5498869 L101.028722,42.3382882 C100.987589,42.512507 100.939758,42.7425765 100.885237,43.0285122 C100.830737,43.3144681 100.742801,43.879724 100.62155,44.7243932 C100.500482,45.5692111 100.413689,46.3823332 100.361155,47.1637389 C100.308784,47.9452334 100.314275,48.8367181 100.377721,49.8381806 C100.441456,50.8396792 100.580161,51.7214301 100.793764,52.4833683 C101.731156,55.7012452 103.478576,57.2706905 106.033596,57.1929854 C107.922495,57.2837984 109.434244,56.8796718 110.568914,55.9814466 C111.081273,55.571319 111.580561,55.1001041 112.066809,54.5678266 C112.553097,54.0357865 113.095116,53.3729829 113.692929,52.5795526 C114.290843,51.7865679 114.636167,51.3396956 114.728838,51.2385948 C115.224083,50.6338571 115.99872,50.2739726 117.052722,50.1587802 C118.106715,50.0436655 118.83058,50.1159112 119.224375,50.3753978 C119.664529,50.584366 120.059105,50.8375189 120.408126,51.1348604 C120.757187,51.4321183 120.98968,51.6466214 121.105587,51.7784301 C121.221501,51.9102269 121.463513,52.216467 121.831691,52.6970674 C122.327516,53.2966007 121.591221,55.1108452 119.623869,58.1443263 C119.179234,58.8467822 118.784372,59.4249533 118.43923,59.8787409 C118.094122,60.3326762 117.566269,60.9710953 116.855707,61.7943135 C116.145246,62.6180745 115.34108,63.3345731 114.443129,63.9437805 C113.545205,64.5534644 112.582341,65.0239136 111.554477,65.3549866 C109.058589,66.1566 106.812096,66.5861887 104.814985,66.6425607 C102.817877,66.6989115 100.682072,66.4189055 98.4077406,65.8015661 C96.4672591,65.2710818 94.7647976,63.7184796 93.3019024,61.1424503 C91.8413906,58.5637954 90.9909946,55.7094779 90.751032,52.5815778 Z M104.019866,32.9279519 C104.045134,33.5447922 105.272407,33.8281754 107.701641,33.7780948 C110.920375,33.7117381 112.980468,33.4601371 113.881971,33.0235311 C114.606431,32.7137538 115.238945,32.2892698 115.779565,31.7501233 C116.320214,31.2112379 116.654198,30.6704922 116.781556,30.1277353 C117.045593,28.9686366 116.782697,28.2369266 115.992677,27.9321604 C115.646754,27.7910913 114.751702,27.7643807 113.307474,27.8521136 C111.863232,27.9399204 110.712565,28.1024358 109.855437,28.3397304 C108.807,28.6546267 107.438355,29.5180514 105.74959,30.931404 C105.229213,31.3857021 104.80451,31.8012854 104.475469,32.1780943 C104.146446,32.5550162 103.994584,32.8049948 104.019866,32.9279519 Z M168.38199,42.4100762 C169.473906,34.9314913 172.413734,28.5570258 177.194023,23.2956702 C178.43072,21.9353468 179.650385,20.797946 180.852947,19.8830215 C182.055507,18.9690541 183.203238,18.2955194 184.296146,17.8619767 C185.38901,17.4288294 186.328381,17.1353008 187.114308,16.981158 C187.900218,16.8271114 188.771172,16.7195842 189.727202,16.6585304 C191.130909,16.5674474 192.322872,16.8835512 193.303345,17.6063494 C194.284085,18.3285628 194.710144,19.2960799 194.581576,20.5095245 C194.482415,21.4851251 194.278166,22.2071574 193.968686,22.6756449 C193.65923,23.1442658 193.086814,23.6590955 192.251394,24.2203536 C192.051928,24.3665153 191.174687,24.6910554 189.619588,25.1944481 C188.064411,25.6984855 186.814022,26.4360643 185.868487,27.4073375 C184.486439,28.8173561 183.369116,30.2537206 182.516604,31.7160463 C181.66439,33.1795464 180.831718,35.0323955 180.019013,37.2751456 C178.378894,41.742656 177.901078,45.120472 178.583973,47.4023376 C178.842451,48.3056193 179.336311,49.010558 180.065485,49.5170531 C180.794779,50.0232282 181.633059,50.2866764 182.580268,50.3076161 C183.527483,50.3285162 184.294599,50.2469443 184.881628,50.0629935 C185.46865,49.8791302 186.128536,49.5022492 186.861321,48.9325503 C187.325877,48.5854447 188.261044,47.7960759 189.666913,46.5654723 C191.072868,45.3364112 192.109125,44.4637384 192.775659,43.9465008 C193.041157,43.7492405 193.287265,43.5882242 193.513988,43.4634307 C193.74071,43.3386615 193.959744,43.2795413 194.171096,43.2860483 C194.382448,43.2925532 194.549606,43.2882902 194.672573,43.2732618 C194.79554,43.2582347 194.959386,43.3254021 195.164123,43.4747452 C195.36887,43.6240618 195.495179,43.7099824 195.543046,43.7325287 C195.590914,43.755074 195.732612,43.8821876 195.968161,44.1138394 L196.295303,44.4262573 C196.530902,44.6577996 196.711288,44.8432097 196.836456,44.982517 C196.961632,45.1218097 197.115332,45.3197375 197.297571,45.5762886 C197.479834,45.8328013 197.583825,46.0676088 197.60954,46.280745 C197.635267,46.4938786 197.654081,46.766589 197.665994,47.0988877 C197.677933,47.4311884 197.586254,47.7425754 197.39094,48.0330963 C196.157935,50.6588875 194.92086,52.7168691 193.679047,54.2060132 C193.020975,55.0119082 192.430073,55.6732548 191.906285,56.1898893 C191.382521,56.7067691 190.667396,57.3074249 189.760888,57.9921032 C188.854403,58.6773316 187.802689,59.2185768 186.60568,59.6157325 C185.408646,60.0132757 184.097444,60.2594814 182.672045,60.3541115 C179.861794,60.54222 177.724086,60.3246535 176.259051,59.700594 C174.794245,59.0756921 173.284681,57.9588 171.730879,56.34894 C168.626264,53.1229469 167.508951,48.4729138 168.38199,42.4100762 Z M211.230897,34.6884262 C211.249457,31.6433603 211.786162,27.3267537 212.843936,21.7429503 C213.01361,20.8444814 213.663853,20.14487 214.794531,19.6443304 C215.92516,19.1442693 217.118775,18.95547 218.37548,19.0774545 C219.533981,19.1772897 220.51667,19.6027366 221.323742,20.3535148 C222.131058,21.1037848 222.611905,21.7591541 222.766177,22.3199768 C222.818683,22.5538324 222.838203,22.8938617 222.824758,23.3400909 C222.811355,23.7863329 222.767547,24.1920328 222.693319,24.5572143 C222.619116,24.9224244 222.570935,25.281321 222.548776,25.6339021 C222.791577,25.6295047 223.393636,25.4073705 224.354947,24.9677622 C225.189185,24.5776581 226.340509,23.9010176 227.808927,22.9385323 C229.277283,21.9772713 230.445218,21.0805923 231.312823,20.2480303 C233.097013,18.5139793 234.15352,17.540472 234.482339,17.3254774 C234.900541,17.0392059 235.394094,16.8803357 235.963015,16.8487927 C236.814975,16.8131839 237.520922,17.024553 238.080954,17.4827292 C238.641083,17.9406863 239.184014,18.6666796 239.709928,19.6605759 C241.044896,22.154776 240.945316,24.3340979 239.409866,26.2025864 C238.794628,26.9600502 238.04909,27.6679392 237.173195,28.3263392 C236.297288,28.9852448 235.067959,29.8151883 233.485132,30.8168476 C231.902239,31.8198851 230.547355,32.7316645 229.420474,33.5517848 C228.005403,34.5899334 226.709289,35.6911569 225.532149,36.8554402 C224.35507,38.0209503 223.535507,38.9383949 223.07342,39.6070931 L222.384507,40.5753236 C222.324365,43.8665431 222.389171,46.7083858 222.578179,49.1003598 C222.738688,51.0464639 222.786636,52.5257417 222.721544,53.5384123 C222.656657,54.5511806 222.412428,55.4991134 221.98878,56.382436 C221.264127,57.6051107 219.811057,58.5699344 217.629315,59.2772564 C216.664131,59.5918792 215.650304,59.4425288 214.587948,58.8285625 C213.52577,58.2139947 212.926681,57.2593386 212.790819,55.9649515 C212.163798,50.3168387 211.740513,45.9781782 211.516945,42.9500154 C211.295507,39.9216563 211.200354,37.1676905 211.230897,34.6884262 Z M248.853085,32.4352641 C249.304334,28.7814716 250.153263,25.6675442 251.398663,23.094258 C252.644789,20.5239191 253.851714,18.9181648 255.018893,18.2752281 C255.278258,18.132441 255.528381,18.0245364 255.769271,17.9514981 C256.010158,17.8784746 256.219317,17.8175078 256.396756,17.7685901 C256.574193,17.7196797 256.787192,17.7107193 257.035759,17.7416976 C257.284329,17.7726685 257.472934,17.7987487 257.60158,17.8199429 C257.730226,17.8411344 257.944296,17.907273 258.243803,18.0183401 C258.543319,18.1293773 258.745211,18.2129789 258.849479,18.2691662 C258.95375,18.3253482 259.191929,18.4430187 259.56404,18.6221405 C259.93617,18.8012029 260.188857,18.9243209 260.322097,18.9915367 C260.799953,19.2150058 261.11483,19.61984 261.266776,20.2060697 C261.418807,20.792228 261.415775,21.5366806 261.257713,22.4396097 C261.099784,23.3426803 260.919197,24.1827902 260.715914,24.9599716 C260.512719,25.7373039 260.235479,26.6720754 259.88424,27.764472 C259.756805,28.1596917 259.660561,28.4619226 259.595494,28.6711479 C258.188515,33.2537474 257.49203,37.3166978 257.505633,40.8556907 C257.522134,42.6366103 257.879537,44.0499076 258.57764,45.0951097 C259.276069,46.1396646 259.915807,46.5958484 260.496624,46.4642069 C261.097704,46.3320663 261.711921,45.8647801 262.339334,45.0626303 C262.966788,44.2609375 263.741637,42.9252094 264.664155,41.0562622 C265.587044,39.1889099 266.735224,36.6037323 268.109403,33.302616 C268.871876,31.4449387 269.436051,29.5178516 269.802111,27.5208487 C270.168785,25.5245564 270.423555,23.4562547 270.566572,21.3156057 C270.710399,19.1752991 270.799123,17.9671227 270.832149,17.6907897 C271.023202,16.2629251 271.659185,15.3347148 272.739822,14.9062235 C273.820403,14.4781261 274.876548,14.5899348 275.908496,15.2409107 C276.87353,15.7776237 277.587566,17.2341924 278.051458,19.6103304 C278.516614,21.9855589 278.676181,24.3080849 278.529883,26.5789312 C278.393943,28.9415975 277.994129,31.3674568 277.330335,33.8574782 C276.667374,36.3490481 275.389822,39.5800368 273.498219,43.554563 C272.51604,45.602895 271.614129,47.3519163 270.792275,48.8011055 C269.97062,50.2513932 269.24733,51.3718031 268.622262,52.161881 C267.997235,52.9524091 267.50928,53.5145128 267.158351,53.8479497 C266.807427,54.181492 266.40074,54.5168868 265.938274,54.8541691 C265.21154,55.3844642 264.179721,55.7979655 262.842764,56.0946628 C261.505774,56.3916726 260.088423,56.4604269 258.590729,56.30048 C257.191877,56.1602318 255.681348,55.5774534 254.059403,54.5511277 C252.437913,53.5232359 251.160977,52.2223008 250.228738,50.6484869 C248.230955,47.2684494 247.769818,41.1933626 248.853085,32.4352641 Z M286.568425,49.3731745 C286.520065,48.5524954 286.724676,47.9072332 287.182176,47.4375375 C287.639682,46.9680349 288.454518,46.465894 289.626671,45.9313611 C290.689622,45.4687551 291.582792,45.2105754 292.306233,45.1565141 C293.029671,45.1024755 293.663437,45.1704147 294.207572,45.3602399 C294.893616,45.5460324 295.447034,45.8320334 295.867861,46.2182327 C296.288739,46.6042781 296.703191,47.0471699 297.111247,47.5468929 C297.519376,48.0464235 297.979086,48.4477114 298.490367,48.7508002 C299.166125,49.2078374 300.030532,49.0689176 301.083533,48.3347744 C302.380117,47.4129529 303.501361,46.0779796 304.447504,44.3301427 C305.213203,42.9281909 304.898835,41.521345 303.504773,40.107439 C303.07053,39.6651801 301.866978,38.7090528 299.894677,37.2371063 C297.923246,35.7624238 296.437526,34.5468461 295.437057,33.5917189 C294.232693,32.4808959 293.419916,31.2182892 292.998698,29.8043873 C292.577931,28.3899536 292.519468,26.6435779 292.823434,24.5660427 C292.996365,23.2653397 293.334461,22.0644728 293.837622,20.9636217 C294.340886,19.8632653 294.9811,18.8863652 295.758204,18.0329596 C296.535303,17.1801374 297.237908,16.4880354 297.866031,15.956415 C298.494136,15.4250865 299.270461,14.8352404 300.195006,14.1870316 C301.205748,13.4928307 302.416818,12.9383081 303.828232,12.523362 C305.239559,12.1089115 306.686851,11.9433829 308.170244,12.0262992 C309.65367,12.1090817 310.857753,12.505832 311.78267,13.2162153 C314.520977,15.3217689 314.902827,17.4803956 312.92672,19.6989933 C312.181478,20.5461357 311.350322,21.2654532 310.433197,21.8569057 C309.516026,22.4488318 308.809845,22.7040984 308.314673,22.6223276 C307.918013,22.5614137 307.576411,22.3751313 307.289878,22.0634316 C307.003378,21.75165 306.77443,21.5519387 306.603003,21.4643427 C306.239934,21.2894495 305.727328,21.3999402 305.065139,21.7960335 C304.402926,22.1923551 303.730606,22.8042965 303.048181,23.6320786 C302.719745,24.0232608 302.511388,24.4236975 302.423118,24.8333398 C302.33487,25.2430144 302.369803,25.6787399 302.527939,26.1404554 C302.686125,26.6021046 302.836027,26.9618533 302.977628,27.2197371 C303.119247,27.4775876 303.353266,27.8525392 303.679732,28.3445177 C303.956094,28.7467502 304.41866,29.2413395 305.067505,29.828112 C305.716478,30.4145309 306.641227,31.1927119 307.841962,32.1621269 C309.043061,33.1304504 309.96551,33.8893689 310.60915,34.439475 C312.209906,35.8022011 313.239781,36.905921 313.69843,37.7519413 C314.157257,38.5975946 314.353103,39.9342152 314.286212,41.7621829 C314.187947,44.5831767 312.505455,47.7546019 309.237938,51.2841699 C307.80973,52.8428885 306.539558,54.1213712 305.427342,55.1188974 C304.315127,56.1174206 303.22901,56.8384599 302.168933,57.2815914 C301.23309,57.6982925 300.237044,58.0209006 299.180769,58.2493151 C298.124474,58.4779205 296.926251,58.5296857 295.586104,58.4043089 C294.245992,58.2787186 293.077965,57.8796229 292.08209,57.2066793 C290.579743,56.1849296 289.296297,54.8810062 288.231913,53.2947996 C287.168203,51.7070114 286.613836,50.3994311 286.568425,49.3731745 Z M326.235966,25.0679702 C326.509075,23.5828778 327.030744,22.4805585 327.800779,21.7610907 C328.570784,21.0421087 329.375649,20.6309836 330.215409,20.5273901 C330.746534,20.4737651 331.529522,20.5110594 332.564423,20.6391553 C333.599357,20.7671144 334.236895,20.8401917 334.477034,20.8584884 C334.858771,20.8743907 335.312221,20.7941484 335.837387,20.6178245 C336.36254,20.4415799 336.796003,20.2725206 337.137794,20.110618 L337.624016,19.8348213 C338.120899,16.9488865 338.514989,14.4336059 338.806025,12.2884073 C339.214734,9.31713937 339.698416,7.00382151 340.256476,5.3482734 C340.599653,4.31957256 341.31293,3.61650128 342.396218,3.23908276 C343.479437,2.86201615 344.676761,2.75686751 345.988323,2.92321335 C346.702077,3.02802019 347.299364,3.22269211 347.78022,3.50719376 C348.261118,3.79156934 348.591258,4.07168056 348.770636,4.34759563 C348.950035,4.62346427 349.143607,4.99350986 349.351382,5.45770925 C349.398936,5.5682387 349.438837,5.70103942 349.471087,5.85611533 C349.503342,6.01118614 349.518499,6.18307599 349.516558,6.37179342 C349.514623,6.5605103 349.508293,6.74372064 349.497568,6.92143106 C349.486848,7.0991424 349.460828,7.32141667 349.419509,7.58826594 C349.378199,7.85512334 349.341446,8.08308354 349.309247,8.27215075 C349.277051,8.46122253 349.226313,8.72266176 349.157035,9.05648636 C349.087768,9.39032898 349.031351,9.65742407 348.98778,9.85777127 C348.944212,10.0581253 348.874466,10.3531677 348.778544,10.7429244 C348.682636,11.132711 348.612916,11.4278139 348.569375,11.6282248 L347.259209,18.4769143 C350.217025,18.3855706 352.767048,17.9794817 354.909199,17.2595433 C357.301436,16.4708137 359.345459,15.9871222 361.04151,15.8074142 C361.130042,15.7398738 361.297481,15.7318881 361.543837,15.7834435 C361.790196,15.8349864 361.94434,15.8547774 362.006272,15.8428269 C362.068203,15.8308771 362.214744,15.8728443 362.445903,15.9687133 C362.677068,16.0645609 362.821707,16.1230729 362.879818,16.1442659 C362.93793,16.1654578 363.080662,16.2405271 363.308025,16.3694558 L363.762774,16.6272276 C363.838569,16.6701789 363.993944,16.7670371 364.228909,16.917782 C364.463884,17.0684928 364.628116,17.1761766 364.721604,17.2408577 C365.381144,17.6493158 365.746817,18.2439012 365.818641,19.0247713 C365.89055,19.8055679 365.717896,20.7831766 365.300662,21.9579822 C364.923963,23.1324548 364.421436,23.9955748 363.792983,24.5473273 C363.164501,25.0993839 362.327885,25.4406791 361.283116,25.5710745 C357.495982,26.019772 354.281665,26.4917622 351.640112,26.9868817 C350.46095,27.2320243 349.366479,27.5311824 348.356664,27.8844153 C347.346802,28.2379556 346.636806,28.5301101 346.226681,28.7607188 L345.615304,29.0733653 C345.551702,29.452559 345.468399,29.9599933 345.365411,30.5957071 C345.262465,31.2314713 345.097293,32.3243805 344.870051,33.8746295 C344.643063,35.4251449 344.48027,36.7242031 344.381569,37.7716949 C344.282994,38.8192555 344.234641,40.0490299 344.236609,41.4609639 C344.238836,42.8728447 344.270847,44.022586 344.33253,44.9102087 L344.425261,46.241501 C346.209728,46.5457409 347.547155,46.9622336 348.437584,47.4910864 C348.531467,47.5548975 348.711593,47.6605389 348.977974,47.8079885 C349.244363,47.9553983 349.419438,48.061115 349.503197,48.1251677 C349.586958,48.189215 349.727806,48.2848226 349.925749,48.4119784 C350.123699,48.5391087 350.256999,48.6570599 350.325653,48.7658491 C350.394309,48.8746307 350.474439,49.0163076 350.56605,49.1908774 C350.657667,49.3654309 350.717629,49.5520068 350.745938,49.750618 C350.774252,49.9492226 350.784876,50.1705214 350.777813,50.4145259 C350.681878,52.722408 349.626311,54.3967596 347.610508,55.4389821 C345.764291,56.4107323 342.782366,56.5995941 338.66508,56.0022093 C337.292756,55.8024371 336.23609,55.5361624 335.495052,55.2034278 C334.754066,54.870439 334.229533,54.2733368 333.921504,53.4120912 C333.720481,52.859984 333.608532,52.0089498 333.585748,50.8590088 C333.563146,49.7090167 333.579514,48.7533483 333.634768,47.992034 C333.690095,47.2307478 333.790901,45.9319899 333.93745,44.0958394 C333.960223,43.7154069 333.981747,43.4355548 334.002014,43.256273 C334.133905,41.7335602 334.311108,40.0367277 334.533724,38.1658572 C334.756754,36.2953053 334.969277,34.5649398 335.17121,32.9746554 L335.505032,30.5890573 C334.072371,30.7536514 332.799264,30.8479273 331.685696,30.8717555 C330.896076,30.8886519 330.238898,30.807583 329.714161,30.6284771 C329.189446,30.4492789 328.530355,30.1216161 327.73693,29.6452763 C327.49186,29.4934851 327.322603,29.3849231 327.229147,29.3196094 C327.135693,29.2542898 327.000579,29.1561968 326.823803,29.0253155 C326.647034,28.8944121 326.523998,28.7792103 326.454688,28.6797182 C326.385381,28.5802196 326.305433,28.4416882 326.214846,28.2641135 C326.124266,28.0865235 326.069116,27.9082127 326.049394,27.7291844 C326.029677,27.5501525 326.015159,27.3261611 326.005844,27.0572038 C325.996539,26.7882433 326.015793,26.4906957 326.063606,26.164564 C326.111433,25.838445 326.168884,25.472915 326.235966,25.0679702 Z M372.486908,35.266518 C372.750051,31.5074619 373.231384,28.8635991 373.929936,27.3352602 C374.60331,25.8521725 375.18875,24.7882329 375.686221,24.1429931 C376.350325,23.2757835 377.279798,22.2947842 378.474598,21.2004496 C379.532902,20.2408867 380.588759,19.4354093 381.64221,18.7837804 C382.69557,18.1327526 383.491292,17.7048808 384.029453,17.4997742 C384.567597,17.2947638 385.223238,17.0771122 385.996388,16.8468563 C389.336307,15.8800686 391.594151,15.6394042 392.770502,16.122343 C393.423313,16.4169983 394.066369,16.8420786 394.69973,17.3974765 C395.333194,17.9525243 395.807298,18.4446294 396.122014,18.8739662 L396.597866,19.4850735 C396.686169,19.4184511 396.821829,19.3347608 397.004848,19.2340083 C397.187864,19.1332719 397.570544,19.0075503 398.15289,18.8568841 C398.735222,18.7062936 399.317187,18.6479671 399.898819,18.6818283 C400.500683,18.7153345 400.989134,18.859038 401.364202,19.1128903 C401.739295,19.3666475 402.065371,19.6969419 402.342447,20.1037675 C402.619562,20.5104764 402.803808,20.7562954 402.895165,20.8413137 C403.389999,21.2872632 403.700021,21.6713532 403.825207,21.9937295 C404.029585,22.5093654 404.131089,23.221491 404.129742,24.1301787 C404.106487,27.5701592 404.209761,30.5201071 404.439281,32.9799073 C404.671827,35.4171208 404.847978,38.0925322 404.96786,41.0062559 C405.016677,42.0202691 405.349061,42.756263 405.965004,43.2141211 C405.982868,43.2352102 406.042729,43.2875034 406.144592,43.3709957 C406.246457,43.454479 406.330457,43.5168702 406.396594,43.5581757 C406.462732,43.5994784 406.563742,43.6451873 406.699628,43.6953007 C406.835515,43.7454068 406.964271,43.7687332 407.0859,43.765286 C407.207528,43.7618388 407.362566,43.730476 407.551017,43.671204 C407.739467,43.6119416 407.930916,43.5256433 408.125369,43.412314 C408.62283,43.117977 409.315113,42.5704419 410.202205,41.770066 C411.089234,40.9703175 411.609651,40.5147804 411.76352,40.4029825 C412.204849,40.0682199 412.824875,39.8526223 413.623619,39.7561285 C414.422353,39.6596927 415.119044,39.7541339 415.713745,40.0392766 C415.98071,40.1825931 416.242295,40.3743568 416.498513,40.6145546 C416.754745,40.8546867 416.967777,41.0744456 417.13761,41.2738598 C417.307452,41.4732373 417.493985,41.7043248 417.697218,41.9671129 C417.900464,42.2298428 418.037855,42.4031197 418.109386,42.4869877 C418.341872,42.7595136 418.533529,43.0813988 418.684365,43.4526554 C418.835219,43.8238465 418.856717,44.3595847 418.74886,45.059964 C418.641025,45.7603815 418.277672,46.4416245 417.658753,47.103955 C416.949162,47.8552797 415.986068,48.706156 414.769395,49.6570305 C413.55262,50.6089382 412.488466,51.3687332 411.576941,51.9360092 C409.923188,53.0017669 408.254411,53.5631187 406.570679,53.6188977 C404.481228,53.6881173 402.930336,53.5936387 401.917992,53.3352373 C400.905695,53.0765408 400.010827,52.6243683 399.233407,51.978524 C398.601513,51.4791081 398.086661,50.9269121 397.688837,50.3219755 C397.29108,49.7167766 397.067349,49.2739599 397.017594,48.9936947 C396.9891,48.8861826 396.94866,48.7952927 396.896271,48.7210218 C396.843882,48.6467468 396.798618,48.5993508 396.760475,48.5788351 C395.27939,50.0884572 394.017662,51.1697741 392.91808,51.7910412 C390.739022,53.0347417 388.133633,53.5658457 385.102103,53.3819267 C383.354327,53.2863092 382.095433,53.0653871 381.325393,52.719136 C380.555406,52.3726008 379.662191,51.6800165 378.645882,50.6407441 C377.612005,49.5790334 376.498986,48.1409307 375.307084,46.3255464 C374.115867,44.5078951 373.393529,43.1083332 373.139633,42.1283028 C372.547768,39.8404768 372.330266,37.5528284 372.486908,35.266518 Z M382.285717,36.2451105 C382.106108,37.8442617 382.432058,39.4413481 383.263781,41.0352488 C383.613441,41.702515 384.164808,42.4185525 384.917952,43.1831214 C385.671247,43.947092 386.327244,44.4517012 386.88587,44.6973054 C387.11695,44.7996462 387.440277,44.8448655 387.855858,44.832983 C388.271438,44.8211006 388.604508,44.7789223 388.855075,44.7064586 C388.958869,44.681729 389.077055,44.6185021 389.209638,44.5167835 C389.342219,44.4150768 389.464053,44.3191288 389.575144,44.2289343 C389.686234,44.1387487 389.859758,43.9869762 390.095719,43.773639 C390.331676,43.5603464 390.527895,43.386276 390.684385,43.251403 C391.82517,42.2630915 392.578741,41.6665432 392.945178,41.4610407 C393.117045,41.3694845 393.292757,41.2887022 393.472321,41.2186893 C393.651884,41.1486874 393.793545,41.101436 393.897309,41.0769271 L394.049308,41.0728423 C394.642589,36.1277338 394.954145,32.8084623 394.982892,31.113757 L395.058934,24.790901 C394.397131,25.1078484 393.58324,25.3409751 392.617242,25.4902381 C392.063398,25.566296 391.3432,25.6401972 390.456624,25.7119526 C389.57004,25.7837531 388.992727,25.8440838 388.724673,25.8929207 C387.875078,26.0839873 387.113077,26.3933817 386.438638,26.8212007 C385.764164,27.2492737 385.224564,27.7348508 384.819839,28.2778981 C384.415103,28.821135 384.108267,29.3024364 383.89933,29.7217293 C383.690395,30.1410956 383.521961,30.5596474 383.394027,30.9773735 C382.867056,32.6053598 382.49758,34.3613723 382.285717,36.2451105 Z M428.981162,28.4050917 C429.491145,26.0007643 429.987694,24.2172056 430.470705,23.0541368 C430.953693,21.891498 431.841088,20.3164104 433.132736,18.3300926 C434.566907,16.1516354 435.939333,14.4351707 437.250134,13.1797813 C438.56068,11.9258013 439.660501,11.1124902 440.549776,10.7389886 C441.438989,10.3657798 442.391159,10.1515877 443.406356,10.0962168 C445.782637,9.96000275 448.145123,10.4923289 450.494461,11.6908837 C451.621209,12.268574 452.782797,12.9879256 453.979336,13.8486572 C455.176134,14.7083176 456.00475,15.4299664 456.465072,16.0142104 C457.247472,16.9729871 457.904972,19.4307965 458.438215,23.3856767 C458.709863,25.319542 457.913089,26.410648 456.047636,26.6599672 C455.226224,26.7824642 454.327707,26.6426877 453.352135,26.2402584 C452.376648,25.8374124 451.525083,25.2730698 450.797446,24.5470973 C450.560112,24.3189854 450.364444,24.0794316 450.210433,23.8284398 C450.056432,23.5774044 449.942699,23.3731927 449.869226,23.2158213 C449.795756,23.0584364 449.747219,22.8582309 449.723614,22.6152008 C449.700012,22.3721598 449.687262,22.2136026 449.685359,22.1395322 C449.683456,22.0654612 449.696587,21.9011298 449.724754,21.6465343 L449.797356,21.2640991 C449.874826,20.563982 449.740885,20.1322481 449.395527,19.9688342 C448.280969,19.4583931 447.447614,19.1440424 446.895348,19.0261642 C446.816791,19.0062834 446.708482,18.9816012 446.570419,18.9521148 C446.432357,18.922624 446.329108,18.897847 446.260667,18.8777849 C446.192226,18.8577214 446.103559,18.8379966 445.994664,18.8186093 C445.885769,18.7992197 445.806038,18.7899484 445.755469,18.7907966 L445.558249,18.7941048 C445.477339,18.795462 445.416067,18.8017953 445.374432,18.8131054 C445.332797,18.8244158 445.279869,18.8465279 445.215647,18.8794434 C445.151425,18.9123608 445.09226,18.9451944 445.03815,18.977945 C444.984041,19.0106971 444.933219,19.0593149 444.885684,19.1238004 C444.426828,19.6198942 443.756698,20.4277776 442.8752,21.5479508 C441.993573,22.6689542 441.160394,23.8536142 440.375655,25.101944 C439.368431,26.7171986 438.660053,28.0508353 438.250611,29.1021334 C437.841149,30.153754 437.556712,31.4901352 437.397374,33.1110995 C437.292444,34.2413802 437.459972,35.4659875 437.900071,36.7844119 C438.340361,38.1021155 438.71516,38.9160301 439.024354,39.2266431 C439.425487,39.619682 440.243007,39.810182 441.476915,39.7982594 C442.710827,39.786311 443.63144,39.5919417 444.238755,39.2153177 C444.672198,38.9494618 445.561492,38.1685543 446.906513,36.8736372 C448.251317,35.58024 449.122325,34.7811533 449.519714,34.4752959 C450.797482,33.5140356 452.327175,33.3823877 454.109159,34.0785284 C454.419298,34.1976194 454.675302,34.3496339 454.877179,34.5345757 C455.079065,34.7194764 455.231473,34.8950075 455.334405,35.0611905 C455.437341,35.2273536 455.50623,35.4734182 455.541073,35.7993904 C455.575923,36.125341 455.594756,36.3673361 455.597571,36.5253969 C455.600386,36.6834548 455.582436,36.9843507 455.543722,37.4280943 C455.505013,37.8718358 455.48649,38.1780075 455.48815,38.3466179 C455.375948,40.8370397 455.031343,42.5012639 454.454163,43.33989 C453.732034,44.3940331 452.952652,45.049722 452.116032,45.3066383 C451.865739,45.3773975 451.160208,45.82064 449.999335,46.637002 C448.838349,47.454211 447.953277,47.9676881 447.344167,48.1768969 C445.958985,48.643195 443.297586,48.7688744 439.360098,48.5525066 C437.673,48.4563212 436.361054,48.119678 435.424267,47.5423092 C434.487583,46.9643465 433.546762,46.1037515 432.601878,44.9600379 C430.462175,42.3773581 429.122684,40.0555444 428.582727,37.9980442 C428.225796,36.6611288 428.074329,35.3399624 428.128248,34.0349141 C428.18226,32.7298027 428.466549,30.8530102 428.981162,28.4050917 Z M470.752033,27.7074841 C471.282108,26.1883445 471.905688,24.7830855 472.622762,23.4918001 C473.339694,22.2012354 474.049256,21.1155753 474.7515,20.2346328 C475.453637,19.3542026 476.284843,18.4930276 477.245113,17.6512206 C478.205232,16.8101089 479.045208,16.143905 479.765129,15.6523007 C480.484981,15.161006 481.354277,14.5947395 482.372998,13.9536827 C484.77418,12.4806025 486.909159,11.4097551 488.778343,10.7396177 C490.647263,10.0705966 492.769446,9.76287782 495.145187,9.81547253 C495.971543,9.82560899 496.699647,9.90434363 497.329535,10.051618 C497.959444,10.1987946 498.457996,10.3475921 498.825198,10.4980446 C499.192412,10.6484389 499.543382,10.9024546 499.878128,11.2600425 C500.212901,11.6174966 500.444908,11.8986855 500.574141,12.1036946 C500.703379,12.3086725 500.895587,12.6781241 501.150788,13.2119568 C501.406019,13.7456198 501.602221,14.1250142 501.739384,14.3502513 C502.063218,14.9031468 502.254575,15.561155 502.313438,16.3243692 C502.372308,17.0874655 502.358658,17.7742243 502.272471,18.384758 C502.186272,18.9952962 502.051284,19.8234605 501.867479,20.8693103 C501.683629,21.9152108 501.558103,22.7484451 501.490925,23.3689942 C501.419256,24.0309046 501.25029,24.6586354 500.984005,25.2522954 C500.717688,25.8460668 500.293324,26.4535803 499.710872,27.0749997 C499.12835,27.6967251 498.668921,28.1611221 498.33261,28.4680416 C497.996279,28.7750501 497.386567,29.2742421 496.503387,29.9659666 C495.620096,30.6582267 495.078259,31.0896235 494.877938,31.2597901 C493.570091,32.3253327 491.922706,33.4003433 489.935646,34.4853848 C487.948227,35.5723579 486.381296,36.2766078 485.23503,36.5969473 C484.588679,36.7799186 483.743155,36.8902137 482.698445,36.9277659 C481.653733,36.965329 480.771207,36.9518385 480.050851,36.8872403 L478.99731,36.8207913 C478.999299,36.9874568 479.014699,37.2162823 479.043513,37.5072636 C479.072329,37.7982268 479.213956,38.3049321 479.468425,39.0272233 C479.722931,39.7492673 480.075023,40.3642496 480.524717,40.8721744 C481.658124,42.1509609 483.325127,42.892956 485.525658,43.098999 C486.025688,43.1466882 486.48294,43.1696613 486.897423,43.1679396 C487.311907,43.1662137 487.739359,43.1381891 488.17979,43.0838821 C488.620218,43.0295934 488.953633,42.9836192 489.180047,42.9459496 C489.406459,42.908287 489.793953,42.8297039 490.342532,42.710235 C490.891103,42.5908224 491.269009,42.5074441 491.476269,42.4600618 C492.492272,42.2238612 493.308824,42.1486655 493.925983,42.2342671 C494.543151,42.3198025 495.214325,42.6515734 495.939566,43.2292734 C496.162557,43.4085221 496.335427,43.5840416 496.45818,43.7558527 C496.580936,43.9276378 496.644552,44.1321108 496.649027,44.3692909 C496.653501,44.6064626 496.65122,44.812875 496.642184,44.9885389 C496.633148,45.1642004 496.555946,45.4089901 496.41057,45.7229423 C496.265186,46.036928 496.147412,46.2830233 496.057247,46.4612195 C495.96708,46.6394279 495.802525,46.9437893 495.563566,47.3743639 C495.324591,47.8050188 495.15324,48.1252267 495.049516,48.3349492 C494.999913,48.4191022 494.935649,48.5450112 494.856722,48.7126847 C494.317739,49.7623573 493.861093,50.4277231 493.486827,50.7085476 C492.848738,51.1841593 491.568284,51.5265786 489.64543,51.7358246 C487.271671,52.0019541 485.170862,52.0363929 483.343036,51.8384343 C481.515277,51.6399822 479.645344,51.0420858 477.733353,50.0434462 C475.592007,48.9248717 473.908708,47.6849059 472.683327,46.3241046 C471.458236,44.9613542 470.506821,43.2227326 469.829068,41.1081854 C468.642176,37.3716872 468.950353,32.9017503 470.752033,27.7074841 Z M481.523296,27.2904681 C481.622246,27.3092042 481.761686,27.3270781 481.941622,27.3440892 C482.121557,27.3610965 482.46738,27.3849852 482.979104,27.4157428 C483.490831,27.4464792 483.912074,27.4270965 484.242839,27.3576251 C485.327251,27.2305681 486.866646,26.4497389 488.860698,25.016917 C489.781027,24.3548604 490.605717,23.5966446 491.33479,22.7422352 C492.063743,21.8883443 492.50246,21.2424797 492.651032,20.8042643 C493.08314,19.6145201 492.965365,19.0255479 492.29778,19.0370804 C491.852723,19.0447687 490.943859,19.4185625 489.571013,20.1591499 C488.19797,20.9006407 486.756578,21.8054527 485.246711,22.8739955 C484.328503,23.5160368 483.561368,24.2076653 482.945302,24.9487983 C482.329156,25.6903125 481.938675,26.2608318 481.773899,26.6601219 L481.523296,27.2904681 Z M512.956593,42.0544361 C512.337765,40.6798312 512.079428,38.8690302 512.181391,36.6224906 C512.283202,34.3754785 512.592614,32.2153109 513.109536,30.1426406 C513.626172,28.0704536 514.264054,26.0423668 515.023139,24.0586783 C516.786244,19.4953838 519.566936,15.6894225 523.364856,12.6443377 C525.083632,11.2914462 526.883134,10.40917 528.763711,9.99650713 C530.644117,9.58453998 532.255145,9.52297032 533.597038,9.81096149 C534.089355,9.9266244 534.870676,10.2672382 535.94111,10.8323616 C537.011671,11.3968208 537.808054,11.7868196 538.330205,12.0027758 C538.931095,12.2377771 539.551366,12.5281263 540.191047,12.8737642 C540.830773,13.2191568 541.630056,13.6784108 542.588969,14.2512622 C543.54799,14.8234972 544.122219,15.1685794 544.311597,15.2869627 C544.615897,15.4641677 544.869107,15.647184 545.071231,15.8360288 C545.273362,16.0248289 545.433737,16.1788882 545.552356,16.2982325 C545.670979,16.41756 545.775445,16.6229921 545.865758,16.9145172 C545.956072,17.206002 546.015567,17.4070466 546.044244,17.5176835 C546.072922,17.6283153 546.119863,17.9002424 546.185067,18.3334328 C546.250266,18.7665642 546.294523,19.0636822 546.31784,19.224834 C546.656159,21.1771126 546.853408,24.1698722 546.908989,28.2019915 C546.927504,28.7861676 546.947194,29.2644259 546.968066,29.6368083 C546.988932,30.0091596 547.068396,30.4002473 547.206467,30.8100414 C547.344539,31.2197483 547.437485,31.4844194 547.485307,31.6041216 C547.53313,31.7238154 547.713126,32.0718819 548.025311,32.6481541 C548.337509,33.224181 548.552646,33.6212964 548.670723,33.8396697 C549.293017,35.0106283 550.196972,36.3338776 551.382706,37.8085259 C552.568592,39.2809224 553.337545,40.071393 553.689483,40.1816196 C553.840862,40.2775109 554.218267,40.2917336 554.821704,40.2243249 C555.425136,40.1569474 555.836185,40.1401638 556.054869,40.1739431 C556.494396,40.221394 557.020096,40.5014685 557.632005,41.0139031 C558.243945,41.5259466 558.587041,42.0005988 558.66127,42.4381156 C558.805384,43.3530349 557.954208,44.6880866 556.107217,46.4456235 C555.95007,46.590647 555.696421,46.8337938 555.346249,47.1751335 C554.99605,47.5165759 554.75358,47.7495533 554.618846,47.8740065 C554.484109,47.9984742 554.283629,48.1701381 554.017394,48.3890308 C553.751147,48.6079748 553.538146,48.75514 553.378391,48.8305005 C553.218633,48.9058719 553.029535,48.9722176 552.811091,49.0295394 C552.592644,49.0868725 552.38308,49.1088702 552.182392,49.0955215 C550.964528,48.9556622 549.019985,47.9667051 546.349071,46.1242385 C545.691567,45.6623557 544.992133,45.120928 544.250758,44.4997904 C543.509432,43.8780822 542.938657,43.3615081 542.538391,42.950325 L541.904339,42.3644077 C539.176368,44.6053419 536.676172,46.5109667 534.404089,48.0796955 C532.786274,49.2048841 531.274187,49.8674286 529.867991,50.0662893 C528.461763,50.2653704 526.495908,50.1738625 523.970512,49.790647 C518.627323,49.1115441 514.956012,46.5347032 512.956593,42.0544361 Z M521.874009,36.964754 C522.067927,39.2836379 523.30059,40.6853689 525.572262,41.1699397 C526.611426,41.4653395 527.605126,41.5737625 528.553347,41.495523 C529.50156,41.4173328 530.546973,41.047291 531.689521,40.3858603 C534.106781,38.9600705 535.83102,37.5864726 536.862532,36.2635355 C537.568629,35.3345005 537.702676,34.0866862 537.264792,32.5188275 C537.248889,32.4787257 537.174276,32.2325317 537.040953,31.7801675 C536.90763,31.3277081 536.816952,30.9956812 536.768914,30.7841349 C536.720876,30.572571 536.650995,30.2348877 536.559269,29.7710295 C536.46754,29.3070935 536.397693,28.827393 536.349721,28.3319249 C536.301743,27.8363937 536.27781,27.3048064 536.277917,26.7371563 C536.257904,25.0343222 536.14866,23.6928559 535.950273,22.712822 C535.751882,21.7324413 535.329645,20.8624581 534.683608,20.102662 C534.200217,19.5222484 533.812419,19.0871693 533.520181,18.7975907 C533.227957,18.5079129 532.934841,18.274076 532.64082,18.0961033 C532.346809,17.9180719 532.080781,17.8564917 531.842719,17.9114136 C531.604653,17.9663472 531.351207,18.1182234 531.082361,18.3670804 C529.793609,19.4686785 528.837806,20.382036 528.21509,21.1065443 C526.942533,22.6183361 525.824588,24.4751715 524.861134,26.6769871 C522.708405,31.4777711 521.712073,34.9089971 521.874009,36.964754 Z M568.968996,31.6833782 C569.002364,30.6068915 569.14049,29.0645401 569.383135,27.0562313 C569.625349,25.0476821 569.786056,23.7135312 569.865552,23.0538996 C569.945001,22.3942421 570.107552,21.2792354 570.353035,19.708824 C570.598234,18.1383566 570.73117,17.2531695 570.752058,17.0532761 C570.979682,15.4530408 571.305367,14.2653775 571.729249,13.4904885 C572.15301,12.715822 572.7145,12.3633814 573.413837,12.4329466 C575.431046,12.6424904 577.096338,12.93639 578.409762,13.3146083 C579.468664,13.616656 580.196038,14.1469871 580.591864,14.9055741 C580.987703,15.6637416 581.00106,16.7504571 580.6317,18.1661832 C580.398946,19.0436785 580.161285,20.0155845 579.918674,21.0819199 C579.675904,22.1483042 579.501949,22.9901122 579.396889,23.6073277 L579.208841,24.5337686 C582.918331,22.6739433 586.28187,20.9258119 589.29986,19.2879848 C589.876973,18.9811788 590.716741,18.5266719 591.819094,17.9247769 C592.921271,17.3234751 593.739426,16.8804319 594.273683,16.595292 C594.807901,16.3102885 595.443231,15.9744755 596.179666,15.5879322 C596.916025,15.2016439 597.543576,14.8911974 598.062371,14.6564749 C598.581133,14.4218627 599.049806,14.2324253 599.468415,14.0881159 C600.598786,13.6967877 602.01219,13.4489176 603.708729,13.3442962 C605.405237,13.2398107 606.731856,13.3469395 607.688693,13.6653197 C608.702257,14.0216182 609.580704,14.663394 610.32404,15.5902957 C611.067415,16.5162824 611.497479,17.6910323 611.614039,19.1148036 C611.787477,21.3566611 611.067611,24.5130416 609.452234,28.5876155 C607.861874,32.5867169 606.656865,36.3539871 605.838013,39.8873709 C605.360148,41.9096522 604.915557,43.2829116 604.504666,44.007246 C604.093661,44.7317831 603.378656,45.5101823 602.359556,46.3428704 C600.475384,47.8881714 598.471056,48.1995639 596.347181,47.2732545 C595.539522,46.8889044 594.975902,46.1142996 594.656197,44.9491846 C594.336381,43.7833648 594.332503,42.6856308 594.644512,41.6565665 C595.364385,39.2626261 596.546488,36.1212157 598.1894,32.2344472 C599.024004,30.2528224 599.832654,28.1746593 600.615285,25.9998037 C601.397012,23.8257277 601.736992,22.641943 601.635919,22.4478118 C601.534845,22.2536518 600.851071,22.4684266 599.584429,23.092701 C598.317588,23.7176919 597.150188,24.4051811 596.082177,25.1551772 C595.601794,25.4997814 595.022109,25.8761865 594.343085,26.2844808 C593.663991,26.6930226 593.012732,27.0765749 592.389298,27.4351137 C591.76581,27.793853 590.824907,28.3373844 589.566435,29.0661904 C588.307741,29.7958199 587.150796,30.469544 586.095615,31.0872028 C584.502426,32.01504 583.060705,32.8464672 581.770503,33.5811526 C580.480087,34.3166925 579.58808,34.8198963 579.094592,35.0902277 L578.357476,35.4661569 C578.762172,37.9299702 579.025758,39.9109755 579.148422,41.4104492 C579.291333,43.2841916 579.093358,44.9404666 578.554483,46.3803786 C578.470155,46.6004654 578.303883,46.7837042 578.055665,46.9301174 C577.807439,47.0765637 577.466599,47.191479 577.033136,47.2748654 C576.599667,47.3582831 576.203839,47.4207147 575.84564,47.4621472 C575.48744,47.5035909 574.997391,47.5493787 574.375479,47.5995183 C573.753564,47.6496776 573.299543,47.6893772 573.013404,47.7186082 C572.134696,47.8070055 571.159867,47.5217977 570.088945,46.8622684 C569.01809,46.2018515 568.488296,45.4439397 568.499445,44.5890778 C568.542505,39.8556741 568.698886,35.5532333 568.968996,31.6833782 Z" id="the-crustacean" stroke="#F92672" fill="#F92672"></path>
            <path d="M149.957006,40.6707089 C149.841096,39.8615981 150.043935,39.0272152 150.565529,38.1675349 C151.087123,37.3078547 151.672459,36.8780211 152.321554,36.8780211 C152.947467,36.8780211 158.064809,36.8982485 167.673732,36.9387041 C177.282655,36.9791596 183.130218,36.9993871 185.216594,36.9993871 C187.418881,36.9993871 190.809192,36.8426242 195.38763,36.5290938 C199.966067,36.2155634 202.324796,36.0588005 202.463888,36.0588005 C202.695708,36.0588005 202.915933,36.0638574 203.124571,36.0739712 C203.333209,36.0840851 203.530252,36.1144263 203.715708,36.1649958 C203.901164,36.2155652 204.05764,36.2509632 204.18514,36.271191 C204.312641,36.2914188 204.463322,36.357158 204.637186,36.4684108 C204.811051,36.5796635 204.93855,36.6555165 205.019687,36.6959721 C205.100824,36.7364276 205.228323,36.8426218 205.402187,37.0145578 C205.576052,37.1864939 205.686165,37.2926881 205.732529,37.3331436 C205.778893,37.3735992 205.912187,37.5050777 206.132415,37.7275831 C206.352644,37.9500886 206.485938,38.0815671 206.532302,38.1220227 C206.85685,38.445667 207.337868,38.8198751 207.975372,39.2446583 C208.612876,39.6694415 209.122872,40.0588202 209.505374,40.4128062 C209.887877,40.7667921 210.079125,41.1157159 210.079125,41.459588 C210.079125,41.5202713 210.08492,41.7174891 210.096511,42.0512473 C210.108102,42.3850055 210.108102,42.6378488 210.096511,42.8097849 C210.08492,42.9817209 210.061739,43.2295074 210.026966,43.5531517 C209.992193,43.876796 209.911057,44.1296393 209.783556,44.3116893 C209.656056,44.4937392 209.49958,44.6859001 209.314124,44.8881778 C209.128668,45.0904555 208.879466,45.2371046 208.566509,45.3281296 C208.253553,45.4191546 207.876852,45.4545526 207.436394,45.4343249 C206.509116,45.3938693 204.387998,45.3736419 201.072977,45.3736419 C197.757957,45.3736419 193.927195,45.3837556 189.580577,45.4039834 C185.233959,45.4242111 182.527506,45.4343249 181.461135,45.4343249 C172.396988,45.4343249 164.295014,45.353415 157.154969,45.1915928 C155.485868,45.1713651 153.915313,44.6960196 152.443259,43.7655422 C150.971204,42.8350648 150.142462,41.803464 149.957006,40.6707089 Z" id="" fill="#000000" transform="translate(180.015299, 40.749321) rotate(-26.000000) translate(-180.015299, -40.749321) "></path>
        </g>
        <path d="M546.657767,122.585247 C546.016071,121.124147 545.88935,118.763757 546.324545,115.504008 C546.39757,114.949371 546.463139,114.305746 546.521013,113.573116 C546.579303,112.840485 546.620491,112.183936 546.644179,111.60345 C546.66775,111.022964 546.686553,110.258636 546.699967,109.310443 C546.712434,108.36225 546.717847,107.658741 546.71669,107.199897 C546.715232,106.741052 546.707636,105.98649 546.692757,104.936188 C546.676051,103.885887 546.668791,103.235572 546.672306,102.985225 C546.66227,102.59092 546.581107,101.820089 546.424623,100.672708 C546.262262,99.5253267 546.174889,98.5344684 546.166298,97.7001033 C546.156894,96.8657381 546.293154,96.208067 546.577907,95.7270702 C547.523636,94.2074461 549.075429,93.2506153 551.224548,92.8565492 C552.353152,92.6552354 553.548209,92.9251254 554.789336,93.6662273 C556.008223,94.4073293 556.703073,95.367826 556.883003,96.5477465 C557.07491,97.8865024 557.030029,99.6822277 556.753545,101.934976 C556.470956,104.187725 555.965129,106.450685 555.255379,108.723924 C554.504999,111.16456 553.502423,113.898579 552.282274,116.926063 C551.131703,119.953546 550.36633,121.837961 549.940181,122.579363 C549.588138,123.190936 549.020652,123.493501 548.233232,123.487065 C547.445638,123.48063 546.921964,123.180027 546.657767,122.585247 Z" id="," fill="#F92672" transform="translate(551.534481, 108.139605) rotate(-18.000000) translate(-551.534481, -108.139605) "></path>
    </g>
</svg>