<?xml version="1.0" encoding="UTF-8"?>
<svg width="600px" height="400px" viewBox="0 0 600 400" version="1.1" xmlns="http://www.w3.org/2000/svg" xmlns:xlink="http://www.w3.org/1999/xlink">
    <!-- Generator: Sketch 51.3 (57544) - http://www.bohemiancoding.com/sketch -->
    <title>meet_ferris</title>
    <desc>Created with Sketch.</desc>
    <defs></defs>
    <g id="meet_ferris" stroke="none" stroke-width="1" fill="none" fill-rule="evenodd">
        <path d="M8.42295469,280.905299 C8.42552292,278.862301 9.30486499,274.466047 11.0610073,267.716676 C11.7657048,265.053888 12.9328894,259.321667 14.5625961,250.527306 C15.5229417,245.386341 16.3182203,242.126231 16.9484559,240.743974 C17.1521748,240.318071 17.4899357,239.476282 17.9617489,238.218486 C18.4335621,236.960514 18.7729235,236.144207 18.9798433,235.769632 C19.2552028,235.261501 20.0744469,234.86566 21.4375999,234.581363 C22.8007529,234.296 24.1774891,234.229811 25.5678498,234.383246 C25.7732957,234.397293 26.1463609,234.434071 26.6870568,234.493538 C27.2277526,234.552935 27.601218,234.596069 27.8074641,234.622988 C28.0137102,234.649897 28.3298449,234.696359 28.7558776,234.762357 C29.1819104,234.828321 29.5191559,234.90606 29.7676241,234.995606 C30.0160923,235.085156 30.3107478,235.19805 30.6515993,235.334297 C30.9924509,235.470559 31.3094174,235.63438 31.6025085,235.825785 C31.8955995,236.017232 32.1910869,236.247774 32.4889793,236.517448 C33.3252934,237.225735 33.9171315,237.909915 34.2645113,238.569852 C34.6118912,239.23014 34.8972288,240.130282 35.1205327,241.270564 C35.709201,244.621425 35.729839,247.050096 35.1824473,248.55215 C36.7329796,251.756877 37.8914286,253.987764 38.657829,255.239983 L42.4746076,261.269937 C44.6107714,257.713111 46.3178025,254.453167 47.595752,251.492865 C47.9745082,250.570288 48.5267563,249.345998 49.2525128,247.819619 C49.9782692,246.292647 50.3761616,245.473828 50.4462018,245.363577 C50.6244401,244.928905 50.8874555,244.416079 51.235256,243.824999 C51.5830564,243.233773 51.8858927,242.744556 52.1437739,242.357384 L52.5329943,241.816025 C52.6265352,240.407313 52.9796789,239.061213 53.592436,237.77698 C54.6142314,235.644428 55.7166432,234.205818 56.8997045,233.461059 C57.8104806,232.86691 58.8248595,232.608715 59.9428717,232.686774 C61.0608839,232.764495 62.0380324,233.157247 62.8743465,233.865712 C64.228403,235.094918 65.2298426,236.843548 65.8786954,239.112757 C66.4903582,239.49523 67.0471134,240.028412 67.5489778,240.712516 C67.9138361,241.246709 68.1196585,242.539831 68.1664512,244.592837 C68.190711,245.846991 68.365284,249.177686 68.6901755,254.593097 C68.8806292,257.772906 69.18193,261.527464 69.5940871,265.859841 C70.4119995,274.440415 70.8217497,278.755583 70.8233502,278.782544 C70.8568331,278.915993 71.0221498,279.225009 71.3193053,279.70974 C71.6164607,280.19466 71.9570336,280.765471 72.341034,281.422301 C72.7250344,282.079473 73.018216,282.606185 73.2205875,283.002283 C73.2779507,283.107751 73.4149863,283.371787 73.6316986,283.794493 C73.8484109,284.217333 73.980677,284.508976 74.0285007,284.669343 C74.0763244,284.829725 74.142089,285.077417 74.2257963,285.412464 C74.3095036,285.747571 74.3155685,286.066347 74.2439911,286.368759 C74.1724137,286.671175 74.0451071,287.003579 73.8620675,287.365948 C73.7697475,287.533577 73.5875109,287.909423 73.3153522,288.493443 C73.0431935,289.07738 72.8386775,289.508499 72.7017979,289.78686 C72.5649184,290.065199 72.3683412,290.414319 72.1120605,290.834186 C71.8557798,291.253974 71.6018719,291.605645 71.3503293,291.889216 C71.0987867,292.172715 70.8384771,292.415801 70.5693928,292.618485 C69.7541376,293.090705 69.1613839,293.328256 68.7911139,293.331536 C68.4208438,293.334763 67.9211456,293.201341 67.2920044,292.931343 C66.6373825,292.662537 65.8222549,292.163898 64.8465973,291.435783 C63.8709397,290.708206 63.2779329,290.078934 63.0675592,289.547687 C62.3742734,287.768854 61.8696363,285.727072 61.5536328,283.422519 C61.4243759,282.539236 61.025166,280.235398 60.3559913,276.515805 C59.6868165,272.803065 59.2748033,270.296422 59.1199392,268.991224 C58.920389,267.367806 58.7076066,265.41847 58.4815857,263.143924 C58.2555648,260.871576 58.0858041,259.005272 57.9722987,257.543956 L57.8020413,255.353617 C57.0605334,257.477675 56.3731348,259.438145 55.7398249,261.235156 C55.6729855,261.399028 55.5139235,262.048414 55.2626339,263.18341 C55.0113444,264.318503 54.6768475,265.45148 54.2591333,266.582195 C53.8414192,267.712768 53.3062492,268.802488 52.6536073,269.851107 C51.6094056,271.613319 50.1281167,273.542123 48.2096963,275.635461 C47.5633297,276.359336 47.1259216,276.839717 46.897459,277.07693 C46.6689964,277.314086 46.271346,277.605404 45.7044958,277.950722 C45.1376456,278.295754 44.5381217,278.521849 43.9059061,278.629065 C43.2991711,278.734978 42.6697025,278.675059 42.0174813,278.449464 C41.36526,278.223877 40.8858408,278.004368 40.5792091,277.790959 C40.2725775,277.577598 39.8508574,277.256049 39.3140362,276.826409 C39.2598739,276.775498 38.9850972,276.561032 38.4896979,276.183113 C37.9942986,275.805344 37.6454501,275.527807 37.4431418,275.350406 C37.2408336,275.173037 36.9739958,274.878971 36.6426204,274.468291 C36.3112451,274.057768 36.0563156,273.64418 35.8778243,273.227489 C35.2929896,272.00676 34.195167,270.121177 32.5843237,267.573966 C30.9734804,265.032244 30.036605,263.492729 29.7736695,262.951424 C29.4549712,262.333887 28.9893026,261.506262 28.3766498,260.468968 C27.7639969,259.432568 27.2314268,258.557487 26.7789233,257.84336 L26.0977708,256.733761 C25.3161251,257.74062 24.7494732,258.710772 24.3977981,259.644713 C24.3993986,259.670875 24.1670649,260.258366 23.70079,261.407052 C23.2345151,262.555533 22.8255463,263.596401 22.4738712,264.529764 C22.1221961,265.463027 21.7351699,266.653598 21.3127809,268.101583 C20.8903919,269.54956 20.6005488,270.867729 20.443243,272.056335 C19.9902779,275.09689 19.8030092,277.26128 19.8814312,278.548882 C19.9006367,278.864314 20.0899914,279.668194 20.4495012,280.961264 C20.809011,282.25533 20.9920273,283.166542 20.9985556,283.694256 C21.0130862,284.353837 20.5781737,285.178993 19.693805,286.168961 C18.8094364,287.158035 18.0686971,287.779317 17.4715648,288.033287 C16.9747549,288.257888 16.1765267,288.351867 15.0768564,288.31505 C13.9771861,288.277798 12.9479716,288.139597 11.989182,287.90069 C11.0813537,287.660406 10.2625303,286.787124 9.53268725,285.282151 C8.80284414,283.778878 8.43293699,282.320194 8.42295469,280.905299 Z M89.7947917,283.060995 C89.2145052,281.017827 88.7652932,279.248988 88.447142,277.753493 C88.1289909,276.259147 87.8629422,274.56517 87.648988,272.671791 C87.4350337,270.779936 87.4054147,268.870867 87.56013,266.944022 C87.7148454,265.018026 88.0514898,263.033009 88.5700734,260.988365 C89.1761757,258.693463 90.2266369,256.556499 91.7214885,254.575376 C93.2163401,252.591627 94.9111372,250.956365 96.8059305,249.669065 C98.7007238,248.378507 100.609893,247.328307 102.533494,246.518869 C104.457095,245.706754 106.271671,245.214612 107.977276,245.043481 C111.816857,244.578436 114.886464,244.407033 117.18619,244.533233 C119.485916,244.657977 121.429042,245.36284 123.015625,246.650281 C124.791776,248.115354 126.259,249.775842 127.41734,251.632183 C128.57568,253.491351 129.205254,255.289057 129.306083,257.024053 C129.40211,258.677443 128.90495,260.479364 127.814588,262.428051 C126.724226,264.375305 125.425974,266.046985 123.919793,267.442464 C122.730457,268.56147 121.771166,269.342712 121.041892,269.786972 C120.312618,270.230777 119.17127,270.629573 117.617812,270.982692 C116.064354,271.33445 113.87188,271.587258 111.040324,271.739717 C108.387132,271.876169 106.189025,271.915804 104.445936,271.860018 C102.702847,271.803264 101.622672,271.706685 101.205378,271.571007 L100.579441,271.367494 C100.565163,271.56029 100.554487,271.814505 100.547411,272.13016 C100.540336,272.445843 100.551265,273.068727 100.5802,273.999028 C100.609135,274.929625 100.674289,275.823787 100.775664,276.681555 C100.87704,277.539636 101.074797,278.515301 101.368941,279.608846 C101.663086,280.703058 102.026064,281.662827 102.457889,282.488063 C104.323792,285.978343 106.861988,287.625768 110.072553,287.42028 C112.47734,287.429732 114.301455,286.907296 115.544954,285.853332 C116.105402,285.37155 116.636361,284.822127 117.137846,284.205066 C117.639331,283.587717 118.183366,282.821442 118.769969,281.906123 C119.356572,280.99039 119.697628,280.473452 119.793149,280.355596 C120.289833,279.653779 121.191488,279.206594 122.498141,279.013617 C123.804794,278.819796 124.734457,278.854888 125.287156,279.119571 C125.887616,279.325097 126.439906,279.582951 126.944045,279.893204 C127.448183,280.203556 127.787461,280.428845 127.961888,280.569017 C128.136315,280.709209 128.507074,281.036789 129.074178,281.551951 C129.827648,282.192934 129.281991,284.270866 127.437192,287.782446 C127.023352,288.59354 126.646107,289.262255 126.305445,289.788659 C125.964784,290.314923 125.431888,291.056701 124.706742,292.01366 C123.981596,292.970005 123.115487,293.809534 122.10839,294.532028 C121.101292,295.253581 119.983087,295.821031 118.753739,296.234348 C115.767951,297.229975 113.019775,297.795244 110.509128,297.932636 C107.998481,298.067397 105.242913,297.832875 102.242342,297.230019 C99.6813439,296.711597 97.2080487,295.064341 94.8223821,292.294172 C92.4367155,289.530984 90.7608688,286.453389 89.7947917,283.060995 Z M102.305944,260.898099 C102.473359,261.569139 104.085882,261.79067 107.143564,261.55955 C111.194992,261.247228 113.742158,260.813578 114.785139,260.263136 C115.632276,259.865156 116.338028,259.347331 116.902414,258.709786 C117.4668,258.071886 117.769605,257.448308 117.810837,256.839365 C117.8885,255.539603 117.394582,254.755645 116.329068,254.487109 C115.860813,254.361193 114.724139,254.407349 112.919012,254.624462 C111.113885,254.840077 109.696191,255.112085 108.665887,255.441105 C107.411059,255.869334 105.872955,256.920438 104.051529,258.592657 C103.494282,259.127283 103.049303,259.612085 102.716581,260.047227 C102.383858,260.482239 102.24698,260.765825 102.305944,260.898099 Z M143.910557,260.355297 C144.253977,258.313851 144.739966,256.413102 145.368538,254.652374 C145.997109,252.891307 146.660386,251.398476 147.358388,250.173651 C148.05639,248.948236 148.921603,247.733613 149.954054,246.529294 C150.986506,245.323784 151.904744,244.358924 152.708796,243.63509 C153.512848,242.910606 154.489648,242.069855 155.639227,241.112338 C158.357151,238.897306 160.825159,237.233833 163.043326,236.124396 C165.261492,235.011244 167.877097,234.340528 170.890219,234.112382 C171.936527,234.021403 172.87336,234.033908 173.700745,234.150142 C174.52813,234.266267 175.189881,234.401341 175.686017,234.555455 C176.182153,234.709578 176.679914,235.004437 177.179314,235.440184 C177.678715,235.876133 178.031965,236.22331 178.239074,236.481618 C178.446184,236.739988 178.768015,237.211061 179.204577,237.895094 C179.641139,238.57951 179.970141,239.064619 180.191591,239.350203 C180.718936,240.053349 181.101394,240.914943 181.338975,241.935083 C181.576556,242.955755 181.706212,243.882888 181.727944,244.716275 C181.749677,245.549881 181.756363,246.68307 181.748004,248.116147 C181.739644,249.549804 181.759471,250.689966 181.807484,251.536415 C181.858699,252.439566 181.77971,253.30739 181.570516,254.139709 C181.361322,254.972038 180.955459,255.83961 180.352915,256.742122 C179.750371,257.644203 179.269605,258.319952 178.910601,258.769606 C178.551597,259.219113 177.888499,259.955743 176.921287,260.978877 C175.954074,262.001012 175.362216,262.63627 175.145693,262.885382 C173.722356,264.448175 171.872245,266.050898 169.595304,267.691733 C167.318364,269.32788 165.490406,270.407489 164.111375,270.933147 C163.334277,271.231933 162.290017,271.448977 160.978562,271.584034 C159.667108,271.718346 158.549544,271.77079 157.625838,271.741733 L156.280907,271.736298 C156.319191,271.958413 156.387756,272.262422 156.486605,272.648378 C156.585453,273.034412 156.873096,273.699908 157.349543,274.645307 C157.82599,275.591345 158.402719,276.387813 159.079748,277.034562 C160.785859,278.666182 163.05072,279.54202 165.874401,279.6584 C166.516219,279.685809 167.098697,279.682943 167.621851,279.649811 C168.145005,279.61657 168.678891,279.546701 169.223525,279.440167 C169.768158,279.333479 170.179412,279.245994 170.457299,279.177793 C170.735186,279.109548 171.20774,278.973494 171.874976,278.769455 C172.542212,278.565144 173.001625,278.422678 173.253231,278.342229 C174.48578,277.941789 175.500991,277.774838 176.298894,277.84197 C177.096797,277.908945 178.015815,278.306894 179.055975,279.03636 C179.376147,279.263109 179.632213,279.488865 179.824182,279.713629 C180.01615,279.938437 180.140446,280.212629 180.197072,280.536212 C180.253698,280.859843 180.295183,281.142029 180.321527,281.382761 C180.347871,281.623515 180.302976,281.964025 180.186839,282.404282 C180.070702,282.844538 179.974845,283.189857 179.899267,283.440248 C179.823688,283.690635 179.681273,284.119009 179.472015,284.725356 C179.262758,285.331666 179.115173,285.781927 179.029254,286.076178 C178.984695,286.194813 178.930597,286.371592 178.866958,286.60652 C178.411887,288.080005 177.978174,289.021475 177.565809,289.430916 C176.862079,290.123935 175.318247,290.676022 172.934266,291.085449 C169.992912,291.597059 167.34653,291.772826 164.995042,291.614891 C162.643555,291.455449 160.153003,290.759106 157.523312,289.527952 C154.57825,288.153989 152.185797,286.595507 150.345881,284.853448 C148.505965,283.114331 146.931092,280.864082 145.621215,278.104403 C143.320161,273.246428 142.749947,267.332796 143.910557,260.355297 Z M157.426326,258.835687 C157.55533,258.851316 157.735292,258.862008 157.966219,258.867755 C158.197146,258.873486 158.639081,258.872773 159.29204,258.86552 C159.944998,258.858122 160.472914,258.792449 160.875803,258.66853 C162.218277,258.395642 163.995243,257.204795 166.206754,255.092885 C167.227329,254.114305 168.106514,253.015299 168.844338,251.796147 C169.582161,250.576338 169.997963,249.665043 170.091757,249.062761 C170.382741,247.424328 170.107807,246.650369 169.266944,246.740431 C168.706369,246.800306 167.638324,247.399667 166.062776,248.53695 C164.487228,249.671992 162.860406,251.027937 161.182262,252.604349 C160.160087,253.550348 159.339401,254.54547 158.720179,255.590193 C158.100957,256.634452 157.730113,257.429282 157.607638,257.975066 L157.426326,258.835687 Z M193.200204,242.051731 C193.459306,240.284019 195.033967,238.87131 197.924234,237.809253 C198.828734,237.470759 199.888104,237.148403 201.102374,236.841974 C202.316644,236.534748 203.304374,236.304942 204.065593,236.152935 L205.207417,235.92439 C205.593416,232.3015 205.814715,229.173353 205.871318,226.539527 C205.905769,224.423789 206.166825,221.096488 206.654494,216.55929 C206.78792,215.288796 207.047671,214.435326 207.433756,213.998518 C207.81984,213.561549 208.477063,213.15127 209.405445,212.767361 C211.263807,212.026107 213.412154,211.869642 215.85055,212.299222 C217.043467,212.503202 217.880874,212.892971 218.362796,213.468883 C218.844718,214.045107 219.094668,215.176822 219.112652,216.864454 C219.120908,217.923646 219.067062,219.020405 218.951115,220.154689 C218.835168,221.289198 218.677433,222.479832 218.477905,223.726587 C218.278377,224.973515 218.142858,225.874608 218.071344,226.429796 L217.4305,232.851363 C221.313039,232.050857 224.265489,231.368068 226.287939,230.806833 C226.74339,230.687409 227.374396,230.493491 228.180975,230.224865 C228.987555,229.955851 229.681461,229.738034 230.262715,229.571558 C230.84397,229.404894 231.457866,229.248009 232.104422,229.100882 C232.750978,228.953544 233.299205,228.884795 233.749118,228.894752 C234.199031,228.904654 234.545047,229.008647 234.787177,229.206803 C235.136031,229.477123 235.371386,229.669071 235.493252,229.782602 C235.615117,229.896147 235.851673,230.109767 236.202927,230.423536 C236.554182,230.737408 236.793939,231.008822 236.922206,231.237737 C237.050473,231.466691 237.194278,231.744339 237.353628,232.070716 C237.512977,232.397167 237.583142,232.736037 237.564127,233.087301 C237.545111,233.438592 237.456025,233.79957 237.296866,234.170204 C236.797108,235.343106 235.842682,236.534025 234.433559,237.741792 C233.024435,238.947672 231.342957,239.984689 229.389074,240.852324 C227.159704,241.840223 224.062438,242.907737 220.097181,244.050789 C219.61945,244.226877 219.124216,244.433907 218.611465,244.671853 C218.098714,244.909613 217.705401,245.103337 217.431516,245.253128 L217.020689,245.477706 C217.2055,251.548495 217.469571,256.289285 217.812908,259.694941 C217.931089,260.898329 218.051331,262.370273 218.173639,264.111196 C218.295947,265.853163 218.404986,267.125627 218.50076,267.92803 C218.596534,268.730684 218.728863,269.267759 218.897752,269.539127 C219.429898,270.350656 220.277676,270.842854 221.441112,271.015182 C222.604547,271.187294 223.668718,270.955182 224.633656,270.31841 C225.079505,270.033166 225.469553,269.550096 225.803813,268.869209 C226.138073,268.188189 226.556708,267.409559 227.05973,266.533169 C227.562752,265.656473 228.21948,264.892282 229.029933,264.240345 C230.184313,263.312533 230.997156,262.702625 231.468485,262.411395 C231.939814,262.119984 232.47887,262.009919 233.085668,262.081281 C233.692466,262.152575 234.36145,262.537756 235.092641,263.237244 C237.177888,265.234698 237.42231,268.04844 235.825916,271.673437 C234.980758,273.563749 233.331046,275.745534 230.876731,278.214831 C228.422417,280.67793 226.300329,282.182791 224.510407,282.732683 C222.769845,283.246024 221.139506,283.431507 219.619341,283.290076 C218.099177,283.148125 216.409748,282.725109 214.551006,282.021644 C212.719345,281.344687 211.159129,280.246953 209.870312,278.729729 C208.581494,277.214544 207.767956,275.259368 207.429673,272.864384 C206.429227,265.951753 205.841115,261.388714 205.665318,259.161562 L204.907657,249.07124 C204.756374,249.11794 204.540591,249.157937 204.260304,249.191218 C203.980016,249.224466 203.43736,249.267226 202.632318,249.319344 C201.827276,249.371222 201.064035,249.367808 200.342574,249.309194 C199.621113,249.250464 198.82916,249.078212 197.966691,248.792552 C197.104223,248.506934 196.376708,248.112808 195.784124,247.610327 C194.812404,246.752567 194.108274,245.978519 193.671711,245.287876 C193.235149,244.597617 193.035918,244.022448 193.074013,243.562096 C193.112107,243.101787 193.154171,242.598333 193.200204,242.051731 Z M296.466029,271.05672 C296.11827,268.871396 296.058295,264.866884 296.286103,259.047144 C296.328809,257.926654 296.512045,255.235618 296.835816,250.976212 C297.159588,246.72009 297.30374,243.785573 297.268277,242.17066 C297.240943,241.185009 297.209913,239.772972 297.175187,237.934999 C297.140461,236.097962 297.109768,234.455843 297.083108,233.008327 C297.056447,231.561392 297.04219,230.344827 297.040337,229.358352 C297.020878,228.046194 297.09118,225.898403 297.251244,222.915939 C297.411308,219.935311 297.488138,218.386602 297.481736,218.268389 C297.488011,217.909538 297.408643,217.393574 297.243629,216.720624 C297.078615,216.047896 296.862611,215.264787 296.595611,214.37143 C296.328611,213.4785 296.179972,212.990111 296.14969,212.905931 C295.967998,212.400939 295.927219,211.768245 296.027351,211.007773 C296.127484,210.247374 296.370189,209.626384 296.755473,209.144608 C296.924235,208.937463 297.179344,208.544576 297.520805,207.965854 C297.862267,207.386993 298.195785,206.898583 298.521369,206.500627 C298.846953,206.102556 299.197644,205.811592 299.573453,205.627738 C301.856984,204.577154 303.61026,203.943736 304.833333,203.72958 C309.394374,202.925377 312.778452,202.233252 314.985669,201.657971 C316.200739,201.2894 319.03299,200.611898 323.482506,199.61922 C326.025772,199.060669 327.627093,198.930004 328.286516,199.229507 C329.947815,199.976388 330.979156,200.493864 331.380572,200.781505 C332.049598,201.261118 332.510002,201.809946 332.761798,202.427982 C333.013593,203.046254 333.128476,203.871507 333.106449,204.903774 C333.068545,206.120729 332.812057,207.340245 332.33698,208.561924 C331.861903,209.783352 331.151445,210.691579 330.205586,211.286302 C329.855258,211.470548 329.222252,211.660282 328.306548,211.855291 C327.390844,212.049921 326.21875,212.259838 324.790232,212.484716 C323.361713,212.70877 322.558284,212.836303 322.379919,212.867927 C321.488095,213.025843 320.582776,213.291232 319.663934,213.663965 C318.745093,214.036178 318.138399,214.353221 317.843834,214.615433 C317.671871,214.765867 316.931005,215.098296 315.621214,215.611969 C314.311423,216.124601 313.369115,216.535277 312.794263,216.844613 C312.294252,217.11082 311.723009,217.486643 311.080517,217.971958 C310.438025,218.456918 309.920143,218.867794 309.526857,219.204756 L308.93933,219.754523 C309.040158,221.627969 309.128856,222.798841 309.205424,223.266426 C309.345884,224.444321 309.374145,225.926957 309.290207,227.714494 C309.264852,228.199796 309.29446,228.75122 309.379031,229.368858 C309.463602,229.986643 309.55451,230.483153 309.651758,230.858345 L309.797629,231.42126 C310.055637,231.438995 310.757945,231.35336 311.904576,231.163946 C312.43967,231.075362 313.719623,230.734817 315.744474,230.140755 C317.769324,229.544511 319.163938,229.181073 319.928359,229.051879 C321.788448,228.736476 324.313462,228.593782 327.503474,228.622955 C328.223335,228.620453 328.860501,229.117915 329.41499,230.115991 C329.96948,231.114777 330.34483,232.251413 330.541053,233.52588 C331.061155,237.029663 330.731281,239.294179 329.55142,240.314951 C328.592884,241.145272 326.3857,241.694954 322.929804,241.961579 C322.238625,242.014414 320.963842,242.329611 319.105416,242.905884 C317.24699,243.480263 315.719804,243.878286 314.523813,244.100906 C313.429744,244.306576 312.401393,244.539021 311.438729,244.798291 C310.476065,245.057081 309.780558,245.265542 309.352188,245.423958 L308.747857,245.655341 C308.883642,247.234767 308.971539,248.399388 309.01155,249.148738 C309.160392,251.937826 309.176102,254.159469 309.058681,255.812328 C308.988894,256.913213 308.950011,258.956415 308.942031,261.943496 C308.934051,264.932809 308.898369,267.040199 308.834983,268.264281 C308.759047,270.219696 308.561123,271.570611 308.241204,272.316364 C307.921285,273.061998 307.311485,273.667136 306.411785,274.13145 C306.285982,274.17998 306.01687,274.309908 305.604441,274.521155 C305.192012,274.732279 304.91096,274.878896 304.761277,274.961087 C304.611594,275.043261 304.323772,275.183138 303.897803,275.380641 C303.471833,275.57802 303.183211,275.70261 303.031927,275.754499 C302.880644,275.806375 302.597191,275.907367 302.181561,276.057412 C301.765931,276.207351 301.493619,276.276251 301.364615,276.264189 C301.235611,276.252123 300.980008,276.273119 300.597798,276.327133 C299.801495,276.318261 298.960855,275.717297 298.075854,274.525218 C297.190853,273.334287 296.65425,272.178291 296.466029,271.05672 Z M346.004832,233.361368 C346.348252,231.093983 346.83424,228.970138 347.462812,226.98915 C348.091384,225.007823 348.754661,223.318395 349.452662,221.920626 C350.150664,220.522268 351.015878,219.123151 352.048329,217.722781 C353.08078,216.321221 353.999018,215.192595 354.80307,214.337275 C355.607122,213.481306 356.583923,212.484757 357.733501,211.347125 C360.451425,208.711518 362.919434,206.700701 365.1376,205.31714 C367.355766,203.929866 369.971371,202.998863 372.984493,202.52426 C374.030801,202.346638 374.967634,202.290724 375.795019,202.356763 C376.622404,202.422693 377.284155,202.521719 377.780291,202.653933 C378.276428,202.786157 378.774188,203.072629 379.273589,203.513504 C379.772989,203.95458 380.126239,204.309127 380.333349,204.577051 C380.540458,204.845035 380.862289,205.337768 381.298852,206.055506 C381.735414,206.773627 382.064415,207.281149 382.285866,207.577854 C382.813211,208.30968 383.195668,209.225984 383.433249,210.326863 C383.670831,211.428273 383.800486,212.435122 383.822219,213.347206 C383.843951,214.259509 383.850638,215.501349 383.842278,217.073036 C383.833918,218.645303 383.853745,219.893677 383.901759,220.817943 C383.952973,221.804099 383.873984,222.76127 383.66479,223.689281 C383.455597,224.617301 383.049734,225.598729 382.44719,226.633263 C381.844646,227.667365 381.363879,228.444254 381.004875,228.964167 C380.645872,229.483934 379.982774,230.341373 379.015561,231.535871 C378.048349,232.72937 377.45649,233.470479 377.239968,233.75993 C375.81663,235.580835 373.966519,237.478122 371.689579,239.449982 C369.412639,241.417154 367.58468,242.740284 366.205649,243.421967 C365.428552,243.808977 364.384292,244.126826 363.072837,244.375271 C361.761382,244.622973 360.643818,244.7661 359.720112,244.805023 L358.375181,244.902183 C358.413466,245.142872 358.482031,245.471061 358.580879,245.886802 C358.679728,246.302621 358.967371,247.010446 359.443818,248.010718 C359.920265,249.01163 360.496994,249.840751 361.174022,250.497934 C362.880133,252.155848 365.144995,252.941985 367.968675,252.852666 C368.610494,252.833443 369.192971,252.7856 369.716125,252.709146 C370.239279,252.632583 370.773165,252.515062 371.317799,252.356544 C371.862433,252.197873 372.273687,252.07048 372.551574,251.974446 C372.82946,251.878369 373.302015,251.693075 373.96925,251.418388 C374.636486,251.143429 375.0959,250.952164 375.347506,250.844762 C376.580055,250.311732 377.595265,250.051236 378.393169,250.063864 C379.191072,250.076336 380.11009,250.442203 381.150249,251.162006 C381.470421,251.385982 381.726488,251.613758 381.918456,251.845334 C382.110425,252.076955 382.23472,252.367835 382.291347,252.717984 C382.347973,253.068179 382.389457,253.374127 382.415802,253.635819 C382.442146,253.897534 382.39725,254.273962 382.281113,254.765099 C382.164976,255.256235 382.06912,255.641826 381.993541,255.921882 C381.917963,256.201936 381.775547,256.682068 381.56629,257.362267 C381.357033,258.042429 381.209447,258.546938 381.123529,258.875835 C381.078969,259.009199 381.024871,259.206981 380.961233,259.46919 C380.506161,261.118078 380.072449,262.182609 379.660083,262.662771 C378.956353,263.475976 377.412521,264.199529 375.028541,264.831708 C372.087186,265.619142 369.440805,266.016183 367.089317,266.024978 C364.737829,266.032266 362.247277,265.461969 359.617586,264.31618 C356.672525,263.038138 354.280072,261.514722 352.440155,259.746876 C350.600239,257.981972 349.025366,255.635515 347.71549,252.709202 C345.414435,247.556272 344.844221,241.109735 346.004832,233.361368 Z M359.520601,230.662674 C359.649604,230.670014 359.829567,230.668064 360.060493,230.656816 C360.29142,230.645552 360.733356,230.611185 361.386314,230.553618 C362.039272,230.495907 362.567188,230.383773 362.970078,230.217248 C364.312551,229.816034 366.089517,228.375099 368.301029,225.891333 C369.321603,224.740926 370.200789,223.469203 370.938612,222.076437 C371.676435,220.683014 372.092237,219.652236 372.186031,218.984599 C372.477016,217.165667 372.202081,216.33737 371.361219,216.499259 C370.800644,216.607018 369.732598,217.344713 368.15705,218.710784 C366.581503,220.074614 364.954681,221.684888 363.276537,223.541177 C362.254362,224.656408 361.433675,225.810376 360.814453,227.003563 C360.195231,228.196287 359.824388,229.09652 359.701912,229.704647 L359.520601,230.662674 Z M400.267361,225.104415 C399.627732,221.183479 399.361134,215.517632 399.467561,208.111453 C399.483186,206.920389 400.149821,205.868636 401.467488,204.954897 C402.785155,204.039793 404.251409,203.506967 405.866294,203.356804 C407.352176,203.201581 408.688049,203.508521 409.873954,204.2787 C411.059859,205.049571 411.812149,205.77885 412.130847,206.466263 C412.248775,206.755898 412.348422,207.190943 412.429792,207.771467 C412.511162,208.352113 412.545139,208.887735 412.531725,209.378294 C412.518311,209.868902 412.536347,210.345117 412.585835,210.806968 C412.891603,210.743147 413.603388,210.310991 414.72121,209.509768 C415.689349,208.802098 416.994993,207.644086 418.63818,206.034354 C420.281368,204.422075 421.559067,202.964784 422.471317,201.663647 C424.341977,198.953826 425.461194,197.415174 425.829,197.050498 C426.293927,196.569652 426.882311,196.235217 427.59417,196.047163 C428.662758,195.780276 429.601623,195.873601 430.410793,196.327713 C431.219962,196.782079 432.066635,197.592676 432.950836,198.760184 C435.18762,201.693975 435.541102,204.586666 434.011293,207.430898 C433.40001,208.580377 432.613143,209.69579 431.650669,210.776807 C430.688194,211.856894 429.316513,213.24559 427.535582,214.941434 C425.754652,216.634341 424.241659,218.149298 422.99656,219.487407 C421.434616,221.174889 420.036349,222.913345 418.801715,224.703352 C417.567082,226.491643 416.730118,227.873049 416.290798,228.848723 L415.62942,230.264771 C416.261174,234.574706 416.951692,238.276458 417.700993,241.368242 C418.317963,243.885815 418.692704,245.816916 418.825225,247.159919 C418.957746,248.503498 418.849771,249.798742 418.501297,251.045196 C417.84398,252.797226 416.211957,254.352989 413.605178,255.70944 C412.452273,256.309758 411.140374,256.311186 409.669444,255.714666 C408.198513,255.118501 407.240685,253.990051 406.795931,252.329976 C404.80654,245.110303 403.345938,239.571602 402.414081,235.700282 C401.482224,231.835666 400.766658,228.304454 400.267361,225.104415 Z M449.509831,241.115108 C449.409717,235.527032 449.604817,225.831291 450.095136,212.049272 C450.364176,205.134566 450.670243,199.851062 451.013347,196.193181 C451.35645,192.537126 451.898137,190.129795 452.638424,188.969276 C452.877227,188.594781 453.086976,188.282828 453.267678,188.03343 C453.44838,187.783995 453.64979,187.561654 453.871914,187.366392 L454.390201,186.910617 C454.513603,186.802064 454.714245,186.691491 454.992132,186.578871 C455.270018,186.466207 455.47863,186.38563 455.617974,186.337161 C455.757317,186.288682 456.03043,186.208973 456.437321,186.097985 C456.844212,185.986921 457.161515,185.888746 457.389241,185.803491 C458.709435,185.398191 459.735048,185.285368 460.466112,185.465663 C461.197176,185.645978 462.183959,186.2949 463.42649,187.413389 C463.91395,187.876225 464.293112,188.364736 464.563986,188.878909 C464.834861,189.393258 465.018119,189.831982 465.113767,190.195007 C465.209414,190.558092 465.210341,191.088029 465.116547,191.784823 C465.022753,192.481662 464.943638,192.958148 464.879199,193.214259 C464.814761,193.470368 464.662405,194.028224 464.422129,194.887814 C464.205733,195.709671 464.008883,196.663616 463.831571,197.749756 C463.65426,198.835973 463.531449,199.724733 463.463136,200.416054 L463.398887,201.444378 C464.147177,200.435742 465.151058,199.383623 466.410561,198.287414 C468.706644,196.271787 470.849936,194.803364 472.840504,193.883757 C474.402701,193.159968 476.463951,191.589293 479.024316,189.168349 C479.960573,188.297044 480.679096,187.7119 481.179907,187.413355 C481.680718,187.114637 482.383427,186.985416 483.288054,187.025717 C484.877586,187.353596 486.283383,188.65035 487.505487,190.918595 C488.614466,192.990009 488.550535,195.329873 487.313691,197.934741 C487.14973,198.266515 486.871511,198.6336 486.479024,199.035921 C486.086538,199.438098 485.555916,199.913533 484.887143,200.462069 C484.21837,201.010234 483.542437,201.543465 482.859323,202.061781 C482.176209,202.579724 481.294065,203.241364 480.212863,204.046306 C479.131661,204.850324 478.157166,205.596175 477.289349,206.284111 C475.727279,207.520839 474.406894,208.69189 473.328156,209.797975 C472.249419,210.902959 471.067639,212.264973 469.782781,213.883587 C468.497924,215.50047 467.611905,216.589418 467.124697,217.151583 C466.174163,218.237521 465.270602,219.231247 464.413989,220.132939 C463.557375,221.033924 462.945174,221.670193 462.577368,222.042199 L462.023261,222.552026 C461.842834,227.181957 462.104377,231.898328 462.807898,236.704401 C462.892469,237.367261 462.971837,237.925955 463.046005,238.380445 C463.120173,238.835011 463.155719,239.289778 463.152645,239.744737 C463.149571,240.199741 463.166775,240.544977 463.204259,240.780437 C463.241743,241.015918 463.198416,241.309181 463.074277,241.660209 C462.950138,242.011219 462.8841,242.236256 462.876161,242.335337 C462.868222,242.434421 462.738483,242.672956 462.48694,243.050896 C462.235398,243.428765 462.073008,243.657871 461.999767,243.738272 C461.926526,243.818667 461.689296,244.095972 461.28807,244.570076 C460.886845,245.044015 460.613795,245.377275 460.468913,245.569973 C459.083733,247.222863 458.002611,248.259171 457.225514,248.680102 C456.448416,249.100624 455.197481,249.31082 453.472671,249.310464 C452.803771,249.318739 452.225231,249.203168 451.737034,248.96388 C451.248837,248.724655 450.870907,248.373933 450.603233,247.911762 C450.33556,247.449737 450.12042,246.880127 449.957806,246.202954 C449.795193,245.525979 449.686312,244.765467 449.631159,243.921398 C449.576007,243.077531 449.535565,242.142095 449.509831,241.115108 Z M501.641464,211.481143 C501.401902,208.715607 501.255748,206.930071 501.202996,206.12293 C501.150244,205.315968 501.137556,203.885078 501.164932,201.830729 C501.192307,199.777241 501.204331,198.456632 501.201003,197.868274 C501.207278,197.474012 501.199518,196.666001 501.177722,195.444455 C501.155927,194.223257 501.143365,193.318935 501.140038,192.731257 C501.13671,192.143656 501.138921,191.407709 501.14667,190.523457 C501.154419,189.63937 501.183711,188.929795 501.234546,188.394616 C501.285381,187.859474 501.355357,187.450264 501.444476,187.166943 C502.108068,184.945023 503.815795,183.490466 506.567708,182.801123 C509.523467,182.057153 511.719826,182.649147 513.156853,184.582129 C513.351222,184.861269 513.508169,185.166321 513.627696,185.49729 C513.747224,185.828318 513.833299,186.13499 513.885924,186.417294 C513.938549,186.699629 513.958154,187.097054 513.94474,187.609595 C513.931326,188.122187 513.912711,188.529341 513.888894,188.831042 C513.865077,189.132756 513.819413,189.645345 513.7519,190.368864 C513.684387,191.092449 513.633953,191.639233 513.600596,192.009195 C513.298915,195.833482 513.388435,200.534857 513.869158,206.118747 C513.913844,206.503643 513.969732,207.116767 514.036825,207.958254 C514.103917,208.799944 514.151035,209.366095 514.178179,209.656593 C514.205324,209.947116 514.24764,210.41557 514.30513,211.062041 C514.36262,211.708635 514.410106,212.151309 514.44759,212.390001 C514.485074,212.628712 514.528559,212.989885 514.578046,213.473569 C514.627534,213.957323 514.677389,214.317114 514.727613,214.552914 C514.777838,214.788736 514.830862,215.081755 514.886688,215.431994 C514.942514,215.782276 515.003109,216.098383 515.068474,216.380318 C515.13384,216.662285 515.211944,216.941225 515.30279,217.217151 C515.484483,217.769114 516.030993,218.796549 516.942339,220.300541 C517.853684,221.806092 518.565943,223.327453 519.079137,224.864376 C519.514162,225.856499 519.655421,227.167982 519.502916,228.798689 C519.350412,230.429724 518.837121,231.796821 517.963029,232.899184 C516.722731,234.418447 515.339783,235.388061 513.814143,235.808437 C512.059177,236.280713 510.15264,235.494219 508.094474,233.45281 C506.686255,232.058234 505.48211,229.834022 504.482003,226.782206 C503.481896,223.734956 502.535059,218.631612 501.641464,211.481143 Z M501.202065,162.850789 C500.505705,161.309489 500.171681,159.789517 500.199983,158.290084 C500.228285,156.791108 500.526593,155.530207 501.094917,154.506715 C501.54384,153.676179 502.271903,153.007324 503.279126,152.499846 C504.28635,151.991748 505.590983,151.493879 507.193065,151.005812 C507.77752,150.818683 508.376739,150.798123 508.990739,150.944266 C509.60474,151.090429 510.051108,151.240408 510.329858,151.394216 C510.608609,151.548056 511.07095,151.889209 511.716896,152.417891 C512.362842,152.94688 512.712091,153.220807 512.764652,153.239453 C513.43848,153.810432 513.791888,154.817315 513.824887,156.260242 C513.857886,157.703669 513.60303,159.198828 513.060314,160.745146 C512.200878,163.190131 510.013027,164.869342 506.496693,165.779522 C505.426505,166.055495 504.425108,165.898251 503.492473,165.308467 C502.559837,164.719108 501.796376,163.899806 501.202065,162.850789 Z M533.442787,218.750813 C533.206806,217.607669 533.327616,216.644125 533.80522,215.859575 C534.282825,215.074763 535.204727,214.146449 536.570954,213.073685 C537.81458,212.130141 538.887458,211.520292 539.789621,211.244742 C540.691785,210.968812 541.506786,210.889898 542.234649,211.008264 C543.140877,211.081796 543.901011,211.334217 544.515074,211.765768 C545.129138,212.19752 545.747193,212.712242 546.369259,213.310046 C546.991325,213.908182 547.65754,214.352943 548.367924,214.64417 C549.318838,215.110052 550.381009,214.674592 551.554467,213.336575 C552.99541,211.660341 554.126439,209.439224 554.94759,206.674216 C555.614383,204.452488 554.915569,202.533299 552.851128,200.918948 C552.207583,200.41461 550.481745,199.402873 547.673563,197.885603 C544.865381,196.371126 542.726194,195.087254 541.255937,194.032772 C539.49419,192.821594 538.193852,191.285481 537.354884,189.424669 C536.515916,187.565883 536.061839,185.136659 535.99264,182.136973 C535.926895,180.264971 536.091306,178.48256 536.485877,176.789016 C536.880448,175.09543 537.474917,173.531024 538.269303,172.095226 C539.063689,170.658686 539.799196,169.468982 540.475844,168.526269 C541.152493,167.583065 542.003492,166.509667 543.028868,165.305634 C544.152966,164.00755 545.560963,162.838396 547.2529,161.797611 C548.944838,160.754886 550.737167,160.048109 552.629939,159.677751 C554.522711,159.306115 556.131697,159.469527 557.456946,160.169433 C561.380129,162.254145 562.336399,165.198195 560.325785,168.993831 C559.56962,170.43745 558.676862,171.725322 557.647485,172.857241 C556.618108,173.988155 555.781723,174.573297 555.138304,174.613363 C554.623889,174.651933 554.15164,174.495507 553.721543,174.144229 C553.291446,173.793081 552.958539,173.582622 552.722811,173.512753 C552.225874,173.379895 551.602439,173.697733 550.852486,174.465876 C550.102533,175.233504 549.386905,176.307909 548.705582,177.689092 C548.37606,178.343195 548.200225,178.972966 548.178072,179.578568 C548.155919,180.184235 548.295018,180.788869 548.595374,181.392608 C548.895731,181.996572 549.1634,182.459308 549.398391,182.780719 C549.633382,183.10221 550.010543,183.561374 550.529886,184.158395 C550.966385,184.644033 551.658112,185.204382 552.605088,185.83965 C553.552064,186.475381 554.888864,187.301312 556.615528,188.318053 C558.342192,189.336038 559.671422,190.141608 560.603257,190.734162 C562.919304,192.204104 564.458072,193.47859 565.219608,194.556433 C565.981144,195.635148 566.515904,197.499721 566.823905,200.151174 C567.304249,204.245838 565.856949,209.302636 562.481961,215.307871 C561.009389,217.946853 559.676486,220.134194 558.483212,221.8707 C557.289937,223.605653 556.070705,224.932012 554.82548,225.850089 C553.731537,226.695683 552.541629,227.420794 551.255718,228.025415 C549.969807,228.629058 548.46727,229.015602 546.748061,229.185124 C545.028852,229.353758 543.469226,229.087879 542.069136,228.388573 C539.955461,227.327213 538.058305,225.81263 536.377611,223.846197 C534.696917,221.882966 533.718652,220.185129 533.442787,218.750813 Z M581.89948,214.247562 C581.825226,209.975506 583.696722,207.283592 587.514022,206.163934 C588.480687,205.871175 589.320369,205.757103 590.033091,205.821987 C590.745813,205.886814 591.385316,206.17624 591.951619,206.690504 C592.517922,207.205019 592.939273,207.656092 593.215686,208.043631 C593.492099,208.431282 593.896373,209.067065 594.428519,209.951307 C595.85767,212.343408 596.12652,214.482962 595.235075,216.366473 C595.117275,216.603537 594.665895,217.152007 593.880921,218.011478 C593.095948,218.87037 592.448728,219.640958 591.939241,220.323497 C591.130388,221.221455 590.126748,221.681692 588.928293,221.70445 C587.729837,221.726893 586.783371,221.486628 586.088864,220.98408 C586.009221,220.9365 585.730075,220.761554 585.251417,220.45931 C584.772759,220.157166 584.39166,219.872363 584.108108,219.604866 C583.824557,219.337435 583.490817,218.96371 583.10688,218.483769 C582.722943,218.004008 582.430162,217.406836 582.228527,216.692267 C582.026893,215.977921 581.917211,215.163038 581.89948,214.247562 Z M581.301961,182.263685 C580.838127,180.665546 580.836505,177.132141 581.297092,171.665306 C581.479752,169.55434 581.723918,161.473135 582.029598,147.4483 C582.114757,143.861242 582.402093,139.915394 582.891615,135.610238 C583.381138,131.306911 583.894723,127.769009 584.432385,124.995172 C584.558061,124.388098 584.706047,123.841349 584.876346,123.354881 C585.046646,122.868381 585.214573,122.466303 585.380134,122.148636 C585.545695,121.830937 585.757445,121.53282 586.015389,121.254254 C586.273334,120.975627 586.476745,120.771997 586.625627,120.643391 C586.77451,120.514767 587.007402,120.385931 587.32431,120.256855 C587.641218,120.127728 587.850631,120.047764 587.952553,120.016994 C588.054476,119.98622 588.271859,119.937333 588.604708,119.870305 L589.10398,119.769695 C590.075446,119.542866 591.244034,119.51608 592.609777,119.689544 C593.975521,119.862937 594.83367,120.367126 595.184251,121.202477 C595.550836,122.36992 595.670373,124.446124 595.542865,127.431763 C595.415358,130.418873 595.1298,133.479914 594.686185,136.614393 C593.894348,142.181939 593.372531,147.993677 593.120716,154.052701 C592.704226,164.231395 592.658659,170.299037 592.984012,172.243996 C593.094063,172.926123 593.251904,173.662862 593.45754,174.454317 C593.663176,175.246038 593.818616,175.933142 593.923867,176.515542 C594.029117,177.098063 594.069064,177.665016 594.04371,178.216363 C594.019956,178.80133 593.90142,179.293807 593.688099,179.693728 C593.474777,180.093596 593.079527,180.603747 592.502338,181.224007 C591.925148,181.843958 591.527497,182.303163 591.309374,182.601832 C589.659912,184.827 587.998281,185.982303 586.324432,186.069411 C585.604571,186.13147 584.634561,185.685332 583.414373,184.731806 C582.194185,183.779239 581.490055,182.956728 581.301961,182.263685 Z" id="Meet-Ferris!" fill="#F92672" transform="translate(302.085848, 208.773178) rotate(-20.000000) translate(-302.085848, -208.773178) "></path>
        <path d="M383.709723,122.61255 C256.754621,64.0468163 183.32327,122.61255 91.0609564,117.967286" id="Path-2" stroke="#F92672" stroke-width="13" stroke-linecap="round" stroke-linejoin="round"></path>
        <path d="M111.202375,80.4121416 L61.2530661,107.771766 C54.956118,111.220905 52.647513,119.12167 56.0966524,125.418618 C56.9947124,127.058168 58.2358125,128.484748 59.7353062,129.601062 L96.9780107,157.32677" id="Path-3" stroke="#F92672" stroke-width="13" stroke-linecap="round" stroke-linejoin="round"></path>
    </g>
</svg>